<?xml version="1.0" encoding="utf-8" standalone="no"?>
<!DOCTYPE svg PUBLIC "-//W3C//DTD SVG 1.1//EN"
  "http://www.w3.org/Graphics/SVG/1.1/DTD/svg11.dtd">
<svg xmlns:xlink="http://www.w3.org/1999/xlink" width="1584pt" height="792pt" viewBox="0 0 1584 792" xmlns="http://www.w3.org/2000/svg" version="1.1">
 <metadata>
  <rdf:RDF xmlns:dc="http://purl.org/dc/elements/1.1/" xmlns:cc="http://creativecommons.org/ns#" xmlns:rdf="http://www.w3.org/1999/02/22-rdf-syntax-ns#">
   <cc:Work>
    <dc:type rdf:resource="http://purl.org/dc/dcmitype/StillImage"/>
    <dc:date>2023-06-29T15:59:05.421327</dc:date>
    <dc:format>image/svg+xml</dc:format>
    <dc:creator>
     <cc:Agent>
      <dc:title>Matplotlib v3.7.1, https://matplotlib.org/</dc:title>
     </cc:Agent>
    </dc:creator>
   </cc:Work>
  </rdf:RDF>
 </metadata>
 <defs>
  <style type="text/css">*{stroke-linejoin: round; stroke-linecap: butt}</style>
 </defs>
 <g id="figure_1">
  <g id="patch_1">
   <path d="M 0 792 
L 1584 792 
L 1584 0 
L 0 0 
z
" style="fill: #fafafa"/>
  </g>
  <g id="axes_1">
   <g id="patch_2">
    <path d="M 198 704.88 
L 1425.6 704.88 
L 1425.6 95.04 
L 198 95.04 
z
" style="fill: #fafafa"/>
   </g>
   <g id="matplotlib.axis_1">
    <g id="xtick_1">
     <g id="line2d_1">
      <defs>
       <path id="mfcf567e6e4" d="M 0 0 
L 0 3.5 
" style="stroke: #000000; stroke-width: 0.8"/>
      </defs>
      <g>
       <use xlink:href="#mfcf567e6e4" x="252.27946" y="704.88" style="stroke: #000000; stroke-width: 0.8"/>
      </g>
     </g>
     <g id="text_1">
      <!-- 0m -->
      <g transform="translate(244.227898 719.478438) scale(0.1 -0.1)">
       <defs>
        <path id="DejaVuSans-30" d="M 2034 4250 
Q 1547 4250 1301 3770 
Q 1056 3291 1056 2328 
Q 1056 1369 1301 889 
Q 1547 409 2034 409 
Q 2525 409 2770 889 
Q 3016 1369 3016 2328 
Q 3016 3291 2770 3770 
Q 2525 4250 2034 4250 
z
M 2034 4750 
Q 2819 4750 3233 4129 
Q 3647 3509 3647 2328 
Q 3647 1150 3233 529 
Q 2819 -91 2034 -91 
Q 1250 -91 836 529 
Q 422 1150 422 2328 
Q 422 3509 836 4129 
Q 1250 4750 2034 4750 
z
" transform="scale(0.015625)"/>
        <path id="DejaVuSans-6d" d="M 3328 2828 
Q 3544 3216 3844 3400 
Q 4144 3584 4550 3584 
Q 5097 3584 5394 3201 
Q 5691 2819 5691 2113 
L 5691 0 
L 5113 0 
L 5113 2094 
Q 5113 2597 4934 2840 
Q 4756 3084 4391 3084 
Q 3944 3084 3684 2787 
Q 3425 2491 3425 1978 
L 3425 0 
L 2847 0 
L 2847 2094 
Q 2847 2600 2669 2842 
Q 2491 3084 2119 3084 
Q 1678 3084 1418 2786 
Q 1159 2488 1159 1978 
L 1159 0 
L 581 0 
L 581 3500 
L 1159 3500 
L 1159 2956 
Q 1356 3278 1631 3431 
Q 1906 3584 2284 3584 
Q 2666 3584 2933 3390 
Q 3200 3197 3328 2828 
z
" transform="scale(0.015625)"/>
       </defs>
       <use xlink:href="#DejaVuSans-30"/>
       <use xlink:href="#DejaVuSans-6d" x="63.623047"/>
      </g>
     </g>
    </g>
    <g id="xtick_2">
     <g id="line2d_2">
      <g>
       <use xlink:href="#mfcf567e6e4" x="404.333415" y="704.88" style="stroke: #000000; stroke-width: 0.8"/>
      </g>
     </g>
     <g id="text_2">
      <!-- 10,000,000,000m -->
      <g transform="translate(359.702165 719.478438) scale(0.1 -0.1)">
       <defs>
        <path id="DejaVuSans-31" d="M 794 531 
L 1825 531 
L 1825 4091 
L 703 3866 
L 703 4441 
L 1819 4666 
L 2450 4666 
L 2450 531 
L 3481 531 
L 3481 0 
L 794 0 
L 794 531 
z
" transform="scale(0.015625)"/>
        <path id="DejaVuSans-2c" d="M 750 794 
L 1409 794 
L 1409 256 
L 897 -744 
L 494 -744 
L 750 256 
L 750 794 
z
" transform="scale(0.015625)"/>
       </defs>
       <use xlink:href="#DejaVuSans-31"/>
       <use xlink:href="#DejaVuSans-30" x="63.623047"/>
       <use xlink:href="#DejaVuSans-2c" x="127.246094"/>
       <use xlink:href="#DejaVuSans-30" x="159.033203"/>
       <use xlink:href="#DejaVuSans-30" x="222.65625"/>
       <use xlink:href="#DejaVuSans-30" x="286.279297"/>
       <use xlink:href="#DejaVuSans-2c" x="349.902344"/>
       <use xlink:href="#DejaVuSans-30" x="381.689453"/>
       <use xlink:href="#DejaVuSans-30" x="445.3125"/>
       <use xlink:href="#DejaVuSans-30" x="508.935547"/>
       <use xlink:href="#DejaVuSans-2c" x="572.558594"/>
       <use xlink:href="#DejaVuSans-30" x="604.345703"/>
       <use xlink:href="#DejaVuSans-30" x="667.96875"/>
       <use xlink:href="#DejaVuSans-30" x="731.591797"/>
       <use xlink:href="#DejaVuSans-6d" x="795.214844"/>
      </g>
     </g>
    </g>
    <g id="xtick_3">
     <g id="line2d_3">
      <g>
       <use xlink:href="#mfcf567e6e4" x="556.38737" y="704.88" style="stroke: #000000; stroke-width: 0.8"/>
      </g>
     </g>
     <g id="text_3">
      <!-- 20,000,000,000m -->
      <g transform="translate(511.75612 719.478438) scale(0.1 -0.1)">
       <defs>
        <path id="DejaVuSans-32" d="M 1228 531 
L 3431 531 
L 3431 0 
L 469 0 
L 469 531 
Q 828 903 1448 1529 
Q 2069 2156 2228 2338 
Q 2531 2678 2651 2914 
Q 2772 3150 2772 3378 
Q 2772 3750 2511 3984 
Q 2250 4219 1831 4219 
Q 1534 4219 1204 4116 
Q 875 4013 500 3803 
L 500 4441 
Q 881 4594 1212 4672 
Q 1544 4750 1819 4750 
Q 2544 4750 2975 4387 
Q 3406 4025 3406 3419 
Q 3406 3131 3298 2873 
Q 3191 2616 2906 2266 
Q 2828 2175 2409 1742 
Q 1991 1309 1228 531 
z
" transform="scale(0.015625)"/>
       </defs>
       <use xlink:href="#DejaVuSans-32"/>
       <use xlink:href="#DejaVuSans-30" x="63.623047"/>
       <use xlink:href="#DejaVuSans-2c" x="127.246094"/>
       <use xlink:href="#DejaVuSans-30" x="159.033203"/>
       <use xlink:href="#DejaVuSans-30" x="222.65625"/>
       <use xlink:href="#DejaVuSans-30" x="286.279297"/>
       <use xlink:href="#DejaVuSans-2c" x="349.902344"/>
       <use xlink:href="#DejaVuSans-30" x="381.689453"/>
       <use xlink:href="#DejaVuSans-30" x="445.3125"/>
       <use xlink:href="#DejaVuSans-30" x="508.935547"/>
       <use xlink:href="#DejaVuSans-2c" x="572.558594"/>
       <use xlink:href="#DejaVuSans-30" x="604.345703"/>
       <use xlink:href="#DejaVuSans-30" x="667.96875"/>
       <use xlink:href="#DejaVuSans-30" x="731.591797"/>
       <use xlink:href="#DejaVuSans-6d" x="795.214844"/>
      </g>
     </g>
    </g>
    <g id="xtick_4">
     <g id="line2d_4">
      <g>
       <use xlink:href="#mfcf567e6e4" x="708.441324" y="704.88" style="stroke: #000000; stroke-width: 0.8"/>
      </g>
     </g>
     <g id="text_4">
      <!-- 30,000,000,000m -->
      <g transform="translate(663.810074 719.478438) scale(0.1 -0.1)">
       <defs>
        <path id="DejaVuSans-33" d="M 2597 2516 
Q 3050 2419 3304 2112 
Q 3559 1806 3559 1356 
Q 3559 666 3084 287 
Q 2609 -91 1734 -91 
Q 1441 -91 1130 -33 
Q 819 25 488 141 
L 488 750 
Q 750 597 1062 519 
Q 1375 441 1716 441 
Q 2309 441 2620 675 
Q 2931 909 2931 1356 
Q 2931 1769 2642 2001 
Q 2353 2234 1838 2234 
L 1294 2234 
L 1294 2753 
L 1863 2753 
Q 2328 2753 2575 2939 
Q 2822 3125 2822 3475 
Q 2822 3834 2567 4026 
Q 2313 4219 1838 4219 
Q 1578 4219 1281 4162 
Q 984 4106 628 3988 
L 628 4550 
Q 988 4650 1302 4700 
Q 1616 4750 1894 4750 
Q 2613 4750 3031 4423 
Q 3450 4097 3450 3541 
Q 3450 3153 3228 2886 
Q 3006 2619 2597 2516 
z
" transform="scale(0.015625)"/>
       </defs>
       <use xlink:href="#DejaVuSans-33"/>
       <use xlink:href="#DejaVuSans-30" x="63.623047"/>
       <use xlink:href="#DejaVuSans-2c" x="127.246094"/>
       <use xlink:href="#DejaVuSans-30" x="159.033203"/>
       <use xlink:href="#DejaVuSans-30" x="222.65625"/>
       <use xlink:href="#DejaVuSans-30" x="286.279297"/>
       <use xlink:href="#DejaVuSans-2c" x="349.902344"/>
       <use xlink:href="#DejaVuSans-30" x="381.689453"/>
       <use xlink:href="#DejaVuSans-30" x="445.3125"/>
       <use xlink:href="#DejaVuSans-30" x="508.935547"/>
       <use xlink:href="#DejaVuSans-2c" x="572.558594"/>
       <use xlink:href="#DejaVuSans-30" x="604.345703"/>
       <use xlink:href="#DejaVuSans-30" x="667.96875"/>
       <use xlink:href="#DejaVuSans-30" x="731.591797"/>
       <use xlink:href="#DejaVuSans-6d" x="795.214844"/>
      </g>
     </g>
    </g>
    <g id="xtick_5">
     <g id="line2d_5">
      <g>
       <use xlink:href="#mfcf567e6e4" x="860.495279" y="704.88" style="stroke: #000000; stroke-width: 0.8"/>
      </g>
     </g>
     <g id="text_5">
      <!-- 40,000,000,000m -->
      <g transform="translate(815.864029 719.478438) scale(0.1 -0.1)">
       <defs>
        <path id="DejaVuSans-34" d="M 2419 4116 
L 825 1625 
L 2419 1625 
L 2419 4116 
z
M 2253 4666 
L 3047 4666 
L 3047 1625 
L 3713 1625 
L 3713 1100 
L 3047 1100 
L 3047 0 
L 2419 0 
L 2419 1100 
L 313 1100 
L 313 1709 
L 2253 4666 
z
" transform="scale(0.015625)"/>
       </defs>
       <use xlink:href="#DejaVuSans-34"/>
       <use xlink:href="#DejaVuSans-30" x="63.623047"/>
       <use xlink:href="#DejaVuSans-2c" x="127.246094"/>
       <use xlink:href="#DejaVuSans-30" x="159.033203"/>
       <use xlink:href="#DejaVuSans-30" x="222.65625"/>
       <use xlink:href="#DejaVuSans-30" x="286.279297"/>
       <use xlink:href="#DejaVuSans-2c" x="349.902344"/>
       <use xlink:href="#DejaVuSans-30" x="381.689453"/>
       <use xlink:href="#DejaVuSans-30" x="445.3125"/>
       <use xlink:href="#DejaVuSans-30" x="508.935547"/>
       <use xlink:href="#DejaVuSans-2c" x="572.558594"/>
       <use xlink:href="#DejaVuSans-30" x="604.345703"/>
       <use xlink:href="#DejaVuSans-30" x="667.96875"/>
       <use xlink:href="#DejaVuSans-30" x="731.591797"/>
       <use xlink:href="#DejaVuSans-6d" x="795.214844"/>
      </g>
     </g>
    </g>
    <g id="xtick_6">
     <g id="line2d_6">
      <g>
       <use xlink:href="#mfcf567e6e4" x="1012.549234" y="704.88" style="stroke: #000000; stroke-width: 0.8"/>
      </g>
     </g>
     <g id="text_6">
      <!-- 50,000,000,000m -->
      <g transform="translate(967.917984 719.478438) scale(0.1 -0.1)">
       <defs>
        <path id="DejaVuSans-35" d="M 691 4666 
L 3169 4666 
L 3169 4134 
L 1269 4134 
L 1269 2991 
Q 1406 3038 1543 3061 
Q 1681 3084 1819 3084 
Q 2600 3084 3056 2656 
Q 3513 2228 3513 1497 
Q 3513 744 3044 326 
Q 2575 -91 1722 -91 
Q 1428 -91 1123 -41 
Q 819 9 494 109 
L 494 744 
Q 775 591 1075 516 
Q 1375 441 1709 441 
Q 2250 441 2565 725 
Q 2881 1009 2881 1497 
Q 2881 1984 2565 2268 
Q 2250 2553 1709 2553 
Q 1456 2553 1204 2497 
Q 953 2441 691 2322 
L 691 4666 
z
" transform="scale(0.015625)"/>
       </defs>
       <use xlink:href="#DejaVuSans-35"/>
       <use xlink:href="#DejaVuSans-30" x="63.623047"/>
       <use xlink:href="#DejaVuSans-2c" x="127.246094"/>
       <use xlink:href="#DejaVuSans-30" x="159.033203"/>
       <use xlink:href="#DejaVuSans-30" x="222.65625"/>
       <use xlink:href="#DejaVuSans-30" x="286.279297"/>
       <use xlink:href="#DejaVuSans-2c" x="349.902344"/>
       <use xlink:href="#DejaVuSans-30" x="381.689453"/>
       <use xlink:href="#DejaVuSans-30" x="445.3125"/>
       <use xlink:href="#DejaVuSans-30" x="508.935547"/>
       <use xlink:href="#DejaVuSans-2c" x="572.558594"/>
       <use xlink:href="#DejaVuSans-30" x="604.345703"/>
       <use xlink:href="#DejaVuSans-30" x="667.96875"/>
       <use xlink:href="#DejaVuSans-30" x="731.591797"/>
       <use xlink:href="#DejaVuSans-6d" x="795.214844"/>
      </g>
     </g>
    </g>
    <g id="xtick_7">
     <g id="line2d_7">
      <g>
       <use xlink:href="#mfcf567e6e4" x="1164.603188" y="704.88" style="stroke: #000000; stroke-width: 0.8"/>
      </g>
     </g>
     <g id="text_7">
      <!-- 60,000,000,000m -->
      <g transform="translate(1119.971938 719.478438) scale(0.1 -0.1)">
       <defs>
        <path id="DejaVuSans-36" d="M 2113 2584 
Q 1688 2584 1439 2293 
Q 1191 2003 1191 1497 
Q 1191 994 1439 701 
Q 1688 409 2113 409 
Q 2538 409 2786 701 
Q 3034 994 3034 1497 
Q 3034 2003 2786 2293 
Q 2538 2584 2113 2584 
z
M 3366 4563 
L 3366 3988 
Q 3128 4100 2886 4159 
Q 2644 4219 2406 4219 
Q 1781 4219 1451 3797 
Q 1122 3375 1075 2522 
Q 1259 2794 1537 2939 
Q 1816 3084 2150 3084 
Q 2853 3084 3261 2657 
Q 3669 2231 3669 1497 
Q 3669 778 3244 343 
Q 2819 -91 2113 -91 
Q 1303 -91 875 529 
Q 447 1150 447 2328 
Q 447 3434 972 4092 
Q 1497 4750 2381 4750 
Q 2619 4750 2861 4703 
Q 3103 4656 3366 4563 
z
" transform="scale(0.015625)"/>
       </defs>
       <use xlink:href="#DejaVuSans-36"/>
       <use xlink:href="#DejaVuSans-30" x="63.623047"/>
       <use xlink:href="#DejaVuSans-2c" x="127.246094"/>
       <use xlink:href="#DejaVuSans-30" x="159.033203"/>
       <use xlink:href="#DejaVuSans-30" x="222.65625"/>
       <use xlink:href="#DejaVuSans-30" x="286.279297"/>
       <use xlink:href="#DejaVuSans-2c" x="349.902344"/>
       <use xlink:href="#DejaVuSans-30" x="381.689453"/>
       <use xlink:href="#DejaVuSans-30" x="445.3125"/>
       <use xlink:href="#DejaVuSans-30" x="508.935547"/>
       <use xlink:href="#DejaVuSans-2c" x="572.558594"/>
       <use xlink:href="#DejaVuSans-30" x="604.345703"/>
       <use xlink:href="#DejaVuSans-30" x="667.96875"/>
       <use xlink:href="#DejaVuSans-30" x="731.591797"/>
       <use xlink:href="#DejaVuSans-6d" x="795.214844"/>
      </g>
     </g>
    </g>
    <g id="xtick_8">
     <g id="line2d_8">
      <g>
       <use xlink:href="#mfcf567e6e4" x="1316.657143" y="704.88" style="stroke: #000000; stroke-width: 0.8"/>
      </g>
     </g>
     <g id="text_8">
      <!-- 70,000,000,000m -->
      <g transform="translate(1272.025893 719.478438) scale(0.1 -0.1)">
       <defs>
        <path id="DejaVuSans-37" d="M 525 4666 
L 3525 4666 
L 3525 4397 
L 1831 0 
L 1172 0 
L 2766 4134 
L 525 4134 
L 525 4666 
z
" transform="scale(0.015625)"/>
       </defs>
       <use xlink:href="#DejaVuSans-37"/>
       <use xlink:href="#DejaVuSans-30" x="63.623047"/>
       <use xlink:href="#DejaVuSans-2c" x="127.246094"/>
       <use xlink:href="#DejaVuSans-30" x="159.033203"/>
       <use xlink:href="#DejaVuSans-30" x="222.65625"/>
       <use xlink:href="#DejaVuSans-30" x="286.279297"/>
       <use xlink:href="#DejaVuSans-2c" x="349.902344"/>
       <use xlink:href="#DejaVuSans-30" x="381.689453"/>
       <use xlink:href="#DejaVuSans-30" x="445.3125"/>
       <use xlink:href="#DejaVuSans-30" x="508.935547"/>
       <use xlink:href="#DejaVuSans-2c" x="572.558594"/>
       <use xlink:href="#DejaVuSans-30" x="604.345703"/>
       <use xlink:href="#DejaVuSans-30" x="667.96875"/>
       <use xlink:href="#DejaVuSans-30" x="731.591797"/>
       <use xlink:href="#DejaVuSans-6d" x="795.214844"/>
      </g>
     </g>
    </g>
   </g>
   <g id="matplotlib.axis_2">
    <g id="ytick_1">
     <g id="line2d_9">
      <defs>
       <path id="m61a9cb28e0" d="M 0 0 
L -3.5 0 
" style="stroke: #000000; stroke-width: 0.8"/>
      </defs>
      <g>
       <use xlink:href="#m61a9cb28e0" x="198" y="677.16" style="stroke: #000000; stroke-width: 0.8"/>
      </g>
     </g>
     <g id="text_9">
      <!--  0:00 -->
      <g transform="translate(165.365625 680.959219) scale(0.1 -0.1)">
       <defs>
        <path id="DejaVuSans-20" transform="scale(0.015625)"/>
        <path id="DejaVuSans-3a" d="M 750 794 
L 1409 794 
L 1409 0 
L 750 0 
L 750 794 
z
M 750 3309 
L 1409 3309 
L 1409 2516 
L 750 2516 
L 750 3309 
z
" transform="scale(0.015625)"/>
       </defs>
       <use xlink:href="#DejaVuSans-20"/>
       <use xlink:href="#DejaVuSans-30" x="31.787109"/>
       <use xlink:href="#DejaVuSans-3a" x="95.410156"/>
       <use xlink:href="#DejaVuSans-30" x="129.101562"/>
       <use xlink:href="#DejaVuSans-30" x="192.724609"/>
      </g>
     </g>
    </g>
    <g id="ytick_2">
     <g id="line2d_10">
      <g>
       <use xlink:href="#m61a9cb28e0" x="198" y="619.115475" style="stroke: #000000; stroke-width: 0.8"/>
      </g>
     </g>
     <g id="text_10">
      <!--  1:00 -->
      <g transform="translate(165.365625 622.914694) scale(0.1 -0.1)">
       <use xlink:href="#DejaVuSans-20"/>
       <use xlink:href="#DejaVuSans-31" x="31.787109"/>
       <use xlink:href="#DejaVuSans-3a" x="95.410156"/>
       <use xlink:href="#DejaVuSans-30" x="129.101562"/>
       <use xlink:href="#DejaVuSans-30" x="192.724609"/>
      </g>
     </g>
    </g>
    <g id="ytick_3">
     <g id="line2d_11">
      <g>
       <use xlink:href="#m61a9cb28e0" x="198" y="561.07095" style="stroke: #000000; stroke-width: 0.8"/>
      </g>
     </g>
     <g id="text_11">
      <!--  2:00 -->
      <g transform="translate(165.365625 564.870168) scale(0.1 -0.1)">
       <use xlink:href="#DejaVuSans-20"/>
       <use xlink:href="#DejaVuSans-32" x="31.787109"/>
       <use xlink:href="#DejaVuSans-3a" x="95.410156"/>
       <use xlink:href="#DejaVuSans-30" x="129.101562"/>
       <use xlink:href="#DejaVuSans-30" x="192.724609"/>
      </g>
     </g>
    </g>
    <g id="ytick_4">
     <g id="line2d_12">
      <g>
       <use xlink:href="#m61a9cb28e0" x="198" y="503.026424" style="stroke: #000000; stroke-width: 0.8"/>
      </g>
     </g>
     <g id="text_12">
      <!--  3:00 -->
      <g transform="translate(165.365625 506.825643) scale(0.1 -0.1)">
       <use xlink:href="#DejaVuSans-20"/>
       <use xlink:href="#DejaVuSans-33" x="31.787109"/>
       <use xlink:href="#DejaVuSans-3a" x="95.410156"/>
       <use xlink:href="#DejaVuSans-30" x="129.101562"/>
       <use xlink:href="#DejaVuSans-30" x="192.724609"/>
      </g>
     </g>
    </g>
    <g id="ytick_5">
     <g id="line2d_13">
      <g>
       <use xlink:href="#m61a9cb28e0" x="198" y="444.981899" style="stroke: #000000; stroke-width: 0.8"/>
      </g>
     </g>
     <g id="text_13">
      <!--  4:00 -->
      <g transform="translate(165.365625 448.781118) scale(0.1 -0.1)">
       <use xlink:href="#DejaVuSans-20"/>
       <use xlink:href="#DejaVuSans-34" x="31.787109"/>
       <use xlink:href="#DejaVuSans-3a" x="95.410156"/>
       <use xlink:href="#DejaVuSans-30" x="129.101562"/>
       <use xlink:href="#DejaVuSans-30" x="192.724609"/>
      </g>
     </g>
    </g>
    <g id="ytick_6">
     <g id="line2d_14">
      <g>
       <use xlink:href="#m61a9cb28e0" x="198" y="386.937374" style="stroke: #000000; stroke-width: 0.8"/>
      </g>
     </g>
     <g id="text_14">
      <!--  5:00 -->
      <g transform="translate(165.365625 390.736593) scale(0.1 -0.1)">
       <use xlink:href="#DejaVuSans-20"/>
       <use xlink:href="#DejaVuSans-35" x="31.787109"/>
       <use xlink:href="#DejaVuSans-3a" x="95.410156"/>
       <use xlink:href="#DejaVuSans-30" x="129.101562"/>
       <use xlink:href="#DejaVuSans-30" x="192.724609"/>
      </g>
     </g>
    </g>
    <g id="ytick_7">
     <g id="line2d_15">
      <g>
       <use xlink:href="#m61a9cb28e0" x="198" y="328.892849" style="stroke: #000000; stroke-width: 0.8"/>
      </g>
     </g>
     <g id="text_15">
      <!--  6:00 -->
      <g transform="translate(165.365625 332.692067) scale(0.1 -0.1)">
       <use xlink:href="#DejaVuSans-20"/>
       <use xlink:href="#DejaVuSans-36" x="31.787109"/>
       <use xlink:href="#DejaVuSans-3a" x="95.410156"/>
       <use xlink:href="#DejaVuSans-30" x="129.101562"/>
       <use xlink:href="#DejaVuSans-30" x="192.724609"/>
      </g>
     </g>
    </g>
    <g id="ytick_8">
     <g id="line2d_16">
      <g>
       <use xlink:href="#m61a9cb28e0" x="198" y="270.848323" style="stroke: #000000; stroke-width: 0.8"/>
      </g>
     </g>
     <g id="text_16">
      <!--  7:00 -->
      <g transform="translate(165.365625 274.647542) scale(0.1 -0.1)">
       <use xlink:href="#DejaVuSans-20"/>
       <use xlink:href="#DejaVuSans-37" x="31.787109"/>
       <use xlink:href="#DejaVuSans-3a" x="95.410156"/>
       <use xlink:href="#DejaVuSans-30" x="129.101562"/>
       <use xlink:href="#DejaVuSans-30" x="192.724609"/>
      </g>
     </g>
    </g>
    <g id="ytick_9">
     <g id="line2d_17">
      <g>
       <use xlink:href="#m61a9cb28e0" x="198" y="212.803798" style="stroke: #000000; stroke-width: 0.8"/>
      </g>
     </g>
     <g id="text_17">
      <!--  8:00 -->
      <g transform="translate(165.365625 216.603017) scale(0.1 -0.1)">
       <defs>
        <path id="DejaVuSans-38" d="M 2034 2216 
Q 1584 2216 1326 1975 
Q 1069 1734 1069 1313 
Q 1069 891 1326 650 
Q 1584 409 2034 409 
Q 2484 409 2743 651 
Q 3003 894 3003 1313 
Q 3003 1734 2745 1975 
Q 2488 2216 2034 2216 
z
M 1403 2484 
Q 997 2584 770 2862 
Q 544 3141 544 3541 
Q 544 4100 942 4425 
Q 1341 4750 2034 4750 
Q 2731 4750 3128 4425 
Q 3525 4100 3525 3541 
Q 3525 3141 3298 2862 
Q 3072 2584 2669 2484 
Q 3125 2378 3379 2068 
Q 3634 1759 3634 1313 
Q 3634 634 3220 271 
Q 2806 -91 2034 -91 
Q 1263 -91 848 271 
Q 434 634 434 1313 
Q 434 1759 690 2068 
Q 947 2378 1403 2484 
z
M 1172 3481 
Q 1172 3119 1398 2916 
Q 1625 2713 2034 2713 
Q 2441 2713 2670 2916 
Q 2900 3119 2900 3481 
Q 2900 3844 2670 4047 
Q 2441 4250 2034 4250 
Q 1625 4250 1398 4047 
Q 1172 3844 1172 3481 
z
" transform="scale(0.015625)"/>
       </defs>
       <use xlink:href="#DejaVuSans-20"/>
       <use xlink:href="#DejaVuSans-38" x="31.787109"/>
       <use xlink:href="#DejaVuSans-3a" x="95.410156"/>
       <use xlink:href="#DejaVuSans-30" x="129.101562"/>
       <use xlink:href="#DejaVuSans-30" x="192.724609"/>
      </g>
     </g>
    </g>
    <g id="ytick_10">
     <g id="line2d_18">
      <g>
       <use xlink:href="#m61a9cb28e0" x="198" y="154.759273" style="stroke: #000000; stroke-width: 0.8"/>
      </g>
     </g>
     <g id="text_18">
      <!--  9:00 -->
      <g transform="translate(165.365625 158.558492) scale(0.1 -0.1)">
       <defs>
        <path id="DejaVuSans-39" d="M 703 97 
L 703 672 
Q 941 559 1184 500 
Q 1428 441 1663 441 
Q 2288 441 2617 861 
Q 2947 1281 2994 2138 
Q 2813 1869 2534 1725 
Q 2256 1581 1919 1581 
Q 1219 1581 811 2004 
Q 403 2428 403 3163 
Q 403 3881 828 4315 
Q 1253 4750 1959 4750 
Q 2769 4750 3195 4129 
Q 3622 3509 3622 2328 
Q 3622 1225 3098 567 
Q 2575 -91 1691 -91 
Q 1453 -91 1209 -44 
Q 966 3 703 97 
z
M 1959 2075 
Q 2384 2075 2632 2365 
Q 2881 2656 2881 3163 
Q 2881 3666 2632 3958 
Q 2384 4250 1959 4250 
Q 1534 4250 1286 3958 
Q 1038 3666 1038 3163 
Q 1038 2656 1286 2365 
Q 1534 2075 1959 2075 
z
" transform="scale(0.015625)"/>
       </defs>
       <use xlink:href="#DejaVuSans-20"/>
       <use xlink:href="#DejaVuSans-39" x="31.787109"/>
       <use xlink:href="#DejaVuSans-3a" x="95.410156"/>
       <use xlink:href="#DejaVuSans-30" x="129.101562"/>
       <use xlink:href="#DejaVuSans-30" x="192.724609"/>
      </g>
     </g>
    </g>
   </g>
   <g id="LineCollection_1">
    <path d="M 253.8 677.16 
L 1316.657143 677.16 
" clip-path="url(#p84fadc1a59)" style="fill: none; stroke: #e8e8e8; stroke-width: 0.6"/>
    <path d="M 253.8 619.115475 
L 1316.657143 619.115475 
" clip-path="url(#p84fadc1a59)" style="fill: none; stroke: #e8e8e8; stroke-width: 0.6"/>
    <path d="M 253.8 561.07095 
L 1316.657143 561.07095 
" clip-path="url(#p84fadc1a59)" style="fill: none; stroke: #e8e8e8; stroke-width: 0.6"/>
    <path d="M 253.8 503.026424 
L 1316.657143 503.026424 
" clip-path="url(#p84fadc1a59)" style="fill: none; stroke: #e8e8e8; stroke-width: 0.6"/>
    <path d="M 253.8 444.981899 
L 1316.657143 444.981899 
" clip-path="url(#p84fadc1a59)" style="fill: none; stroke: #e8e8e8; stroke-width: 0.6"/>
    <path d="M 253.8 386.937374 
L 1316.657143 386.937374 
" clip-path="url(#p84fadc1a59)" style="fill: none; stroke: #e8e8e8; stroke-width: 0.6"/>
    <path d="M 253.8 328.892849 
L 1316.657143 328.892849 
" clip-path="url(#p84fadc1a59)" style="fill: none; stroke: #e8e8e8; stroke-width: 0.6"/>
    <path d="M 253.8 270.848323 
L 1316.657143 270.848323 
" clip-path="url(#p84fadc1a59)" style="fill: none; stroke: #e8e8e8; stroke-width: 0.6"/>
    <path d="M 253.8 212.803798 
L 1316.657143 212.803798 
" clip-path="url(#p84fadc1a59)" style="fill: none; stroke: #e8e8e8; stroke-width: 0.6"/>
    <path d="M 253.8 154.759273 
L 1316.657143 154.759273 
" clip-path="url(#p84fadc1a59)" style="fill: none; stroke: #e8e8e8; stroke-width: 0.6"/>
   </g>
   <g id="line2d_19">
    <path d="M 1316.657143 376.141728 
L 1356.514286 376.141728 
L 1369.8 376.141728 
" clip-path="url(#p84fadc1a59)" style="fill: none; stroke-dasharray: 5.55,2.4; stroke-dashoffset: 0; stroke: #9a6324; stroke-opacity: 0.5; stroke-width: 1.5"/>
   </g>
   <g id="line2d_20">
    <path d="M 1316.657143 301.058709 
L 1356.514286 325.465382 
L 1369.8 325.465382 
" clip-path="url(#p84fadc1a59)" style="fill: none; stroke-dasharray: 5.55,2.4; stroke-dashoffset: 0; stroke: #008080; stroke-opacity: 0.5; stroke-width: 1.5"/>
   </g>
   <g id="line2d_21">
    <path d="M 1316.657143 282.428269 
L 1356.514286 274.789037 
L 1369.8 274.789037 
" clip-path="url(#p84fadc1a59)" style="fill: none; stroke-dasharray: 5.55,2.4; stroke-dashoffset: 0; stroke: #fabebe; stroke-opacity: 0.5; stroke-width: 1.5"/>
   </g>
   <g id="line2d_22">
    <path d="M 1316.657143 238.117341 
L 1356.514286 224.112691 
L 1369.8 224.112691 
" clip-path="url(#p84fadc1a59)" style="fill: none; stroke-dasharray: 5.55,2.4; stroke-dashoffset: 0; stroke: #ffd8b1; stroke-opacity: 0.5; stroke-width: 1.5"/>
   </g>
   <g id="line2d_23">
    <path d="M 1316.657143 143.842664 
L 1356.514286 173.436346 
L 1369.8 173.436346 
" clip-path="url(#p84fadc1a59)" style="fill: none; stroke-dasharray: 5.55,2.4; stroke-dashoffset: 0; stroke: #e6194b; stroke-opacity: 0.5; stroke-width: 1.5"/>
   </g>
   <g id="line2d_24">
    <path d="M 1316.657143 122.76 
L 1356.514286 122.76 
L 1369.8 122.76 
" clip-path="url(#p84fadc1a59)" style="fill: none; stroke-dasharray: 5.55,2.4; stroke-dashoffset: 0; stroke: #800000; stroke-opacity: 0.5; stroke-width: 1.5"/>
   </g>
   <g id="line2d_25">
    <path d="M 895.574126 704.88 
L 895.574126 95.04 
" clip-path="url(#p84fadc1a59)" style="fill: none; stroke-dasharray: 1.5,2.475; stroke-dashoffset: 0; stroke: #666666; stroke-width: 1.5"/>
   </g>
   <g id="line2d_26">
    <path d="M 752.780258 704.88 
L 752.780258 95.04 
" clip-path="url(#p84fadc1a59)" style="fill: none; stroke-dasharray: 1.5,2.475; stroke-dashoffset: 0; stroke: #666666; stroke-width: 1.5"/>
   </g>
   <g id="line2d_27">
    <path d="M 1126.300797 704.88 
L 1126.300797 95.04 
" clip-path="url(#p84fadc1a59)" style="fill: none; stroke-dasharray: 1.5,2.475; stroke-dashoffset: 0; stroke: #666666; stroke-width: 1.5"/>
   </g>
   <g id="line2d_28">
    <path d="M 600.209319 704.88 
L 600.209319 95.04 
" clip-path="url(#p84fadc1a59)" style="fill: none; stroke-dasharray: 1.5,2.475; stroke-dashoffset: 0; stroke: #666666; stroke-width: 1.5"/>
   </g>
   <g id="line2d_29">
    <path d="M 836.273084 704.88 
L 836.273084 95.04 
" clip-path="url(#p84fadc1a59)" style="fill: none; stroke-dasharray: 1.5,2.475; stroke-dashoffset: 0; stroke: #666666; stroke-width: 1.5"/>
   </g>
   <g id="line2d_30">
    <path d="M 1156.453096 704.88 
L 1156.453096 95.04 
" clip-path="url(#p84fadc1a59)" style="fill: none; stroke-dasharray: 1.5,2.475; stroke-dashoffset: 0; stroke: #666666; stroke-width: 1.5"/>
   </g>
   <g id="line2d_31">
    <path d="M 1082.494053 704.88 
L 1082.494053 95.04 
" clip-path="url(#p84fadc1a59)" style="fill: none; stroke-dasharray: 1.5,2.475; stroke-dashoffset: 0; stroke: #666666; stroke-width: 1.5"/>
   </g>
   <g id="line2d_32">
    <path d="M 253.8 663.649573 
L 255.32054 659.305387 
L 256.841079 656.216231 
L 258.361619 653.739938 
L 259.882158 651.639683 
L 261.402698 649.798192 
L 264.443777 646.645115 
L 267.484856 643.974482 
L 270.525935 641.635156 
L 273.567014 639.540022 
L 278.128633 636.739149 
L 282.690251 634.247829 
L 287.25187 631.992376 
L 293.334028 629.269419 
L 299.416186 626.801614 
L 307.018884 623.997127 
L 314.621582 621.439938 
L 323.744819 618.630772 
L 332.868056 616.050221 
L 343.511833 613.273729 
L 367.840466 607.324792 
L 1315.136603 376.141728 
L 1315.136603 376.141728 
" clip-path="url(#p84fadc1a59)" style="fill: none; stroke: #9a6324; stroke-width: 1.5; stroke-linecap: square"/>
   </g>
   <g id="line2d_33">
    <path d="M 253.8 661.735252 
L 255.32054 656.399678 
L 256.841079 652.555647 
L 258.361619 649.451816 
L 259.882158 646.806582 
L 261.402698 644.479077 
L 264.443777 640.478819 
L 267.484856 637.078154 
L 270.525935 634.091472 
L 273.567014 631.411146 
L 276.608093 628.968474 
L 281.169712 625.651294 
L 285.73133 622.659317 
L 290.292949 619.922554 
L 296.375107 616.588613 
L 302.457265 613.543114 
L 308.539424 610.730519 
L 316.142121 607.482134 
L 323.744819 604.478438 
L 332.868056 601.139195 
L 341.991294 598.040002 
L 352.635071 594.67603 
L 1315.136603 301.058709 
L 1315.136603 301.058709 
" clip-path="url(#p84fadc1a59)" style="fill: none; stroke: #008080; stroke-width: 1.5; stroke-linecap: square"/>
   </g>
   <g id="line2d_34">
    <path d="M 253.8 654.336249 
L 255.32054 645.653702 
L 256.841079 639.229769 
L 258.361619 633.956499 
L 259.882158 629.409031 
L 261.402698 625.371325 
L 262.923237 621.716021 
L 265.964316 615.24853 
L 269.005395 609.599169 
L 272.046475 604.543583 
L 275.087554 599.943001 
L 278.128633 595.704703 
L 281.169712 591.763211 
L 285.73133 586.305289 
L 290.292949 581.291661 
L 294.854568 576.639992 
L 299.416186 572.290122 
L 303.977805 568.196564 
L 310.059963 563.077198 
L 316.142121 558.286906 
L 322.22428 553.776654 
L 328.306438 549.508214 
L 335.909135 544.466886 
L 343.511833 539.70897 
L 351.114531 535.197226 
L 360.237768 530.06633 
L 369.361006 525.205499 
L 378.484243 520.581401 
L 389.12802 515.449853 
L 399.771796 510.568512 
L 411.936113 505.25961 
L 424.100429 500.205095 
L 436.264746 495.376265 
L 449.949601 490.184081 
L 463.634457 485.219227 
L 478.839853 479.940833 
L 494.045248 474.887088 
L 510.771183 469.56052 
L 529.017658 463.998882 
L 547.264132 458.670536 
L 567.031147 453.134633 
L 588.3187 447.420277 
L 609.606254 441.936985 
L 632.414347 436.293332 
L 656.74298 430.511768 
L 682.592152 424.610626 
L 1315.136603 282.428269 
L 1315.136603 282.428269 
" clip-path="url(#p84fadc1a59)" style="fill: none; stroke: #fabebe; stroke-width: 1.5; stroke-linecap: square"/>
   </g>
   <g id="line2d_35">
    <path d="M 253.8 658.866221 
L 255.32054 651.661227 
L 256.841079 646.259913 
L 258.361619 641.785772 
L 259.882158 637.900572 
L 261.402698 634.431434 
L 264.443777 628.367715 
L 267.484856 623.121092 
L 270.525935 618.450095 
L 273.567014 614.212024 
L 276.608093 610.314353 
L 279.649172 606.693102 
L 284.210791 601.681308 
L 288.77241 597.077967 
L 293.334028 592.805872 
L 297.895647 588.809115 
L 303.977805 583.83726 
L 310.059963 579.206842 
L 316.142121 574.862912 
L 322.22428 570.763599 
L 329.826977 565.934209 
L 337.429675 561.386339 
L 345.032373 557.081191 
L 354.15561 552.192463 
L 363.278847 547.566861 
L 372.402085 543.170807 
L 383.045861 538.296271 
L 393.689638 533.662493 
L 405.853955 528.625505 
L 418.018271 523.831852 
L 431.703127 518.695241 
L 445.387983 513.798773 
L 460.593378 508.607566 
L 475.798774 503.649731 
L 538.140895 483.923712 
L 1315.136603 238.117341 
L 1315.136603 238.117341 
" clip-path="url(#p84fadc1a59)" style="fill: none; stroke: #ffd8b1; stroke-width: 1.5; stroke-linecap: square"/>
   </g>
   <g id="line2d_36">
    <path d="M 253.8 656.373234 
L 255.32054 648.226466 
L 256.841079 642.131292 
L 258.361619 637.089512 
L 259.882158 632.716221 
L 261.402698 628.814807 
L 264.443777 622.002975 
L 267.484856 616.116129 
L 270.525935 610.880233 
L 273.567014 606.133476 
L 276.608093 601.771013 
L 279.649172 597.720397 
L 284.210791 592.118052 
L 288.77241 586.975836 
L 293.334028 582.206495 
L 297.895647 577.746885 
L 302.457265 573.549611 
L 308.539424 568.299169 
L 314.621582 563.384247 
L 320.70374 558.754485 
L 326.785898 554.370751 
L 334.388596 549.190268 
L 341.991294 544.297881 
L 349.593991 539.655703 
L 358.717229 534.372942 
L 367.840466 529.36473 
L 376.963703 524.597256 
L 387.60748 519.302987 
L 398.251257 514.263369 
L 408.895034 509.449291 
L 421.05935 504.192945 
L 433.223666 499.170036 
L 836.166646 336.821939 
L 1315.136603 143.842664 
L 1315.136603 143.842664 
" clip-path="url(#p84fadc1a59)" style="fill: none; stroke: #e6194b; stroke-width: 1.5; stroke-linecap: square"/>
   </g>
   <g id="line2d_37">
    <path d="M 253.8 655.540779 
L 255.32054 647.067453 
L 256.841079 640.727866 
L 258.361619 635.483861 
L 259.882158 630.935122 
L 261.402698 626.877166 
L 264.443777 619.791957 
L 267.484856 613.668803 
L 270.525935 608.222692 
L 273.567014 603.285331 
L 276.608093 598.747673 
L 279.649172 594.534368 
L 284.210791 588.706983 
L 288.77241 583.358185 
L 293.334028 578.39722 
L 297.895647 573.758415 
L 302.457265 569.392472 
L 308.539424 563.931021 
L 314.621582 558.818557 
L 320.70374 554.002699 
L 326.785898 549.442746 
L 334.388596 544.054002 
L 341.991294 538.964921 
L 349.593991 534.136097 
L 358.717229 528.64092 
L 367.840466 523.43132 
L 376.963703 518.472127 
L 387.60748 512.964944 
L 398.251257 507.722642 
L 408.895034 502.71494 
L 421.05935 497.247173 
L 433.223666 492.022222 
L 647.619742 402.252655 
L 1315.136603 122.76 
L 1315.136603 122.76 
" clip-path="url(#p84fadc1a59)" style="fill: none; stroke: #800000; stroke-width: 1.5; stroke-linecap: square"/>
   </g>
   <g id="patch_3">
    <path d="M 198 704.88 
L 198 95.04 
" style="fill: none; stroke: #000000; stroke-width: 0.8; stroke-linejoin: miter; stroke-linecap: square"/>
   </g>
   <g id="patch_4">
    <path d="M 1425.6 704.88 
L 1425.6 95.04 
" style="fill: none; stroke: #000000; stroke-width: 0.8; stroke-linejoin: miter; stroke-linecap: square"/>
   </g>
   <g id="patch_5">
    <path d="M 198 704.88 
L 1425.6 704.88 
" style="fill: none; stroke: #000000; stroke-width: 0.8; stroke-linejoin: miter; stroke-linecap: square"/>
   </g>
   <g id="patch_6">
    <path d="M 198 95.04 
L 1425.6 95.04 
" style="fill: none; stroke: #000000; stroke-width: 0.8; stroke-linejoin: miter; stroke-linecap: square"/>
   </g>
   <g id="text_19">
    <!-- XL1(2) -->
    <g transform="translate(1369.8 378.625165) scale(0.09 -0.09)">
     <defs>
      <path id="DejaVuSans-Bold-58" d="M 3188 2381 
L 4806 0 
L 3553 0 
L 2463 1594 
L 1381 0 
L 122 0 
L 1741 2381 
L 184 4666 
L 1441 4666 
L 2463 3163 
L 3481 4666 
L 4744 4666 
L 3188 2381 
z
" transform="scale(0.015625)"/>
      <path id="DejaVuSans-Bold-4c" d="M 588 4666 
L 1791 4666 
L 1791 909 
L 3903 909 
L 3903 0 
L 588 0 
L 588 4666 
z
" transform="scale(0.015625)"/>
      <path id="DejaVuSans-Bold-31" d="M 750 831 
L 1813 831 
L 1813 3847 
L 722 3622 
L 722 4441 
L 1806 4666 
L 2950 4666 
L 2950 831 
L 4013 831 
L 4013 0 
L 750 0 
L 750 831 
z
" transform="scale(0.015625)"/>
      <path id="DejaVuSans-Bold-28" d="M 2413 -844 
L 1484 -844 
Q 1006 -72 778 623 
Q 550 1319 550 2003 
Q 550 2688 779 3389 
Q 1009 4091 1484 4856 
L 2413 4856 
Q 2013 4116 1813 3408 
Q 1613 2700 1613 2009 
Q 1613 1319 1811 609 
Q 2009 -100 2413 -844 
z
" transform="scale(0.015625)"/>
      <path id="DejaVuSans-Bold-32" d="M 1844 884 
L 3897 884 
L 3897 0 
L 506 0 
L 506 884 
L 2209 2388 
Q 2438 2594 2547 2791 
Q 2656 2988 2656 3200 
Q 2656 3528 2436 3728 
Q 2216 3928 1850 3928 
Q 1569 3928 1234 3808 
Q 900 3688 519 3450 
L 519 4475 
Q 925 4609 1322 4679 
Q 1719 4750 2100 4750 
Q 2938 4750 3402 4381 
Q 3866 4013 3866 3353 
Q 3866 2972 3669 2642 
Q 3472 2313 2841 1759 
L 1844 884 
z
" transform="scale(0.015625)"/>
      <path id="DejaVuSans-Bold-29" d="M 513 -844 
Q 913 -100 1113 609 
Q 1313 1319 1313 2009 
Q 1313 2700 1113 3408 
Q 913 4116 513 4856 
L 1441 4856 
Q 1916 4091 2145 3389 
Q 2375 2688 2375 2003 
Q 2375 1319 2147 623 
Q 1919 -72 1441 -844 
L 513 -844 
z
" transform="scale(0.015625)"/>
     </defs>
     <use xlink:href="#DejaVuSans-Bold-58"/>
     <use xlink:href="#DejaVuSans-Bold-4c" x="77.099609"/>
     <use xlink:href="#DejaVuSans-Bold-31" x="140.820312"/>
     <use xlink:href="#DejaVuSans-Bold-28" x="210.400391"/>
     <use xlink:href="#DejaVuSans-Bold-32" x="256.103516"/>
     <use xlink:href="#DejaVuSans-Bold-29" x="325.683594"/>
    </g>
   </g>
   <g id="text_20">
    <!-- TS2(3) -->
    <g transform="translate(1369.8 327.94882) scale(0.09 -0.09)">
     <defs>
      <path id="DejaVuSans-Bold-54" d="M 31 4666 
L 4331 4666 
L 4331 3756 
L 2784 3756 
L 2784 0 
L 1581 0 
L 1581 3756 
L 31 3756 
L 31 4666 
z
" transform="scale(0.015625)"/>
      <path id="DejaVuSans-Bold-53" d="M 3834 4519 
L 3834 3531 
Q 3450 3703 3084 3790 
Q 2719 3878 2394 3878 
Q 1963 3878 1756 3759 
Q 1550 3641 1550 3391 
Q 1550 3203 1689 3098 
Q 1828 2994 2194 2919 
L 2706 2816 
Q 3484 2659 3812 2340 
Q 4141 2022 4141 1434 
Q 4141 663 3683 286 
Q 3225 -91 2284 -91 
Q 1841 -91 1394 -6 
Q 947 78 500 244 
L 500 1259 
Q 947 1022 1364 901 
Q 1781 781 2169 781 
Q 2563 781 2772 912 
Q 2981 1044 2981 1288 
Q 2981 1506 2839 1625 
Q 2697 1744 2272 1838 
L 1806 1941 
Q 1106 2091 782 2419 
Q 459 2747 459 3303 
Q 459 4000 909 4375 
Q 1359 4750 2203 4750 
Q 2588 4750 2994 4692 
Q 3400 4634 3834 4519 
z
" transform="scale(0.015625)"/>
      <path id="DejaVuSans-Bold-33" d="M 2981 2516 
Q 3453 2394 3698 2092 
Q 3944 1791 3944 1325 
Q 3944 631 3412 270 
Q 2881 -91 1863 -91 
Q 1503 -91 1142 -33 
Q 781 25 428 141 
L 428 1069 
Q 766 900 1098 814 
Q 1431 728 1753 728 
Q 2231 728 2486 893 
Q 2741 1059 2741 1369 
Q 2741 1688 2480 1852 
Q 2219 2016 1709 2016 
L 1228 2016 
L 1228 2791 
L 1734 2791 
Q 2188 2791 2409 2933 
Q 2631 3075 2631 3366 
Q 2631 3634 2415 3781 
Q 2200 3928 1806 3928 
Q 1516 3928 1219 3862 
Q 922 3797 628 3669 
L 628 4550 
Q 984 4650 1334 4700 
Q 1684 4750 2022 4750 
Q 2931 4750 3382 4451 
Q 3834 4153 3834 3553 
Q 3834 3144 3618 2883 
Q 3403 2622 2981 2516 
z
" transform="scale(0.015625)"/>
     </defs>
     <use xlink:href="#DejaVuSans-Bold-54"/>
     <use xlink:href="#DejaVuSans-Bold-53" x="68.212891"/>
     <use xlink:href="#DejaVuSans-Bold-32" x="140.234375"/>
     <use xlink:href="#DejaVuSans-Bold-28" x="209.814453"/>
     <use xlink:href="#DejaVuSans-Bold-33" x="255.517578"/>
     <use xlink:href="#DejaVuSans-Bold-29" x="325.097656"/>
    </g>
   </g>
   <g id="text_21">
    <!-- VK00(1) -->
    <g transform="translate(1369.8 277.272474) scale(0.09 -0.09)">
     <defs>
      <path id="DejaVuSans-Bold-56" d="M 31 4666 
L 1241 4666 
L 2478 1222 
L 3713 4666 
L 4922 4666 
L 3194 0 
L 1759 0 
L 31 4666 
z
" transform="scale(0.015625)"/>
      <path id="DejaVuSans-Bold-4b" d="M 588 4666 
L 1791 4666 
L 1791 2963 
L 3525 4666 
L 4922 4666 
L 2675 2456 
L 5153 0 
L 3647 0 
L 1791 1838 
L 1791 0 
L 588 0 
L 588 4666 
z
" transform="scale(0.015625)"/>
      <path id="DejaVuSans-Bold-30" d="M 2944 2338 
Q 2944 3213 2780 3570 
Q 2616 3928 2228 3928 
Q 1841 3928 1675 3570 
Q 1509 3213 1509 2338 
Q 1509 1453 1675 1090 
Q 1841 728 2228 728 
Q 2613 728 2778 1090 
Q 2944 1453 2944 2338 
z
M 4147 2328 
Q 4147 1169 3647 539 
Q 3147 -91 2228 -91 
Q 1306 -91 806 539 
Q 306 1169 306 2328 
Q 306 3491 806 4120 
Q 1306 4750 2228 4750 
Q 3147 4750 3647 4120 
Q 4147 3491 4147 2328 
z
" transform="scale(0.015625)"/>
     </defs>
     <use xlink:href="#DejaVuSans-Bold-56"/>
     <use xlink:href="#DejaVuSans-Bold-4b" x="77.392578"/>
     <use xlink:href="#DejaVuSans-Bold-30" x="154.882812"/>
     <use xlink:href="#DejaVuSans-Bold-30" x="224.462891"/>
     <use xlink:href="#DejaVuSans-Bold-28" x="294.042969"/>
     <use xlink:href="#DejaVuSans-Bold-31" x="339.746094"/>
     <use xlink:href="#DejaVuSans-Bold-29" x="409.326172"/>
    </g>
   </g>
   <g id="text_22">
    <!-- Spectre(1) -->
    <g transform="translate(1369.8 226.596129) scale(0.09 -0.09)">
     <defs>
      <path id="DejaVuSans-Bold-70" d="M 1656 506 
L 1656 -1331 
L 538 -1331 
L 538 3500 
L 1656 3500 
L 1656 2988 
Q 1888 3294 2169 3439 
Q 2450 3584 2816 3584 
Q 3463 3584 3878 3070 
Q 4294 2556 4294 1747 
Q 4294 938 3878 423 
Q 3463 -91 2816 -91 
Q 2450 -91 2169 54 
Q 1888 200 1656 506 
z
M 2400 2772 
Q 2041 2772 1848 2508 
Q 1656 2244 1656 1747 
Q 1656 1250 1848 986 
Q 2041 722 2400 722 
Q 2759 722 2948 984 
Q 3138 1247 3138 1747 
Q 3138 2247 2948 2509 
Q 2759 2772 2400 2772 
z
" transform="scale(0.015625)"/>
      <path id="DejaVuSans-Bold-65" d="M 4031 1759 
L 4031 1441 
L 1416 1441 
Q 1456 1047 1700 850 
Q 1944 653 2381 653 
Q 2734 653 3104 758 
Q 3475 863 3866 1075 
L 3866 213 
Q 3469 63 3072 -14 
Q 2675 -91 2278 -91 
Q 1328 -91 801 392 
Q 275 875 275 1747 
Q 275 2603 792 3093 
Q 1309 3584 2216 3584 
Q 3041 3584 3536 3087 
Q 4031 2591 4031 1759 
z
M 2881 2131 
Q 2881 2450 2695 2645 
Q 2509 2841 2209 2841 
Q 1884 2841 1681 2658 
Q 1478 2475 1428 2131 
L 2881 2131 
z
" transform="scale(0.015625)"/>
      <path id="DejaVuSans-Bold-63" d="M 3366 3391 
L 3366 2478 
Q 3138 2634 2908 2709 
Q 2678 2784 2431 2784 
Q 1963 2784 1702 2511 
Q 1441 2238 1441 1747 
Q 1441 1256 1702 982 
Q 1963 709 2431 709 
Q 2694 709 2930 787 
Q 3166 866 3366 1019 
L 3366 103 
Q 3103 6 2833 -42 
Q 2563 -91 2291 -91 
Q 1344 -91 809 395 
Q 275 881 275 1747 
Q 275 2613 809 3098 
Q 1344 3584 2291 3584 
Q 2566 3584 2833 3536 
Q 3100 3488 3366 3391 
z
" transform="scale(0.015625)"/>
      <path id="DejaVuSans-Bold-74" d="M 1759 4494 
L 1759 3500 
L 2913 3500 
L 2913 2700 
L 1759 2700 
L 1759 1216 
Q 1759 972 1856 886 
Q 1953 800 2241 800 
L 2816 800 
L 2816 0 
L 1856 0 
Q 1194 0 917 276 
Q 641 553 641 1216 
L 641 2700 
L 84 2700 
L 84 3500 
L 641 3500 
L 641 4494 
L 1759 4494 
z
" transform="scale(0.015625)"/>
      <path id="DejaVuSans-Bold-72" d="M 3138 2547 
Q 2991 2616 2845 2648 
Q 2700 2681 2553 2681 
Q 2122 2681 1889 2404 
Q 1656 2128 1656 1613 
L 1656 0 
L 538 0 
L 538 3500 
L 1656 3500 
L 1656 2925 
Q 1872 3269 2151 3426 
Q 2431 3584 2822 3584 
Q 2878 3584 2943 3579 
Q 3009 3575 3134 3559 
L 3138 2547 
z
" transform="scale(0.015625)"/>
     </defs>
     <use xlink:href="#DejaVuSans-Bold-53"/>
     <use xlink:href="#DejaVuSans-Bold-70" x="72.021484"/>
     <use xlink:href="#DejaVuSans-Bold-65" x="143.603516"/>
     <use xlink:href="#DejaVuSans-Bold-63" x="211.425781"/>
     <use xlink:href="#DejaVuSans-Bold-74" x="270.703125"/>
     <use xlink:href="#DejaVuSans-Bold-72" x="318.505859"/>
     <use xlink:href="#DejaVuSans-Bold-65" x="367.822266"/>
     <use xlink:href="#DejaVuSans-Bold-28" x="435.644531"/>
     <use xlink:href="#DejaVuSans-Bold-31" x="481.347656"/>
     <use xlink:href="#DejaVuSans-Bold-29" x="550.927734"/>
    </g>
   </g>
   <g id="text_23">
    <!-- Voyage(1) -->
    <g transform="translate(1369.8 175.879705) scale(0.09 -0.09)">
     <defs>
      <path id="DejaVuSans-Bold-6f" d="M 2203 2784 
Q 1831 2784 1636 2517 
Q 1441 2250 1441 1747 
Q 1441 1244 1636 976 
Q 1831 709 2203 709 
Q 2569 709 2762 976 
Q 2956 1244 2956 1747 
Q 2956 2250 2762 2517 
Q 2569 2784 2203 2784 
z
M 2203 3584 
Q 3106 3584 3614 3096 
Q 4122 2609 4122 1747 
Q 4122 884 3614 396 
Q 3106 -91 2203 -91 
Q 1297 -91 786 396 
Q 275 884 275 1747 
Q 275 2609 786 3096 
Q 1297 3584 2203 3584 
z
" transform="scale(0.015625)"/>
      <path id="DejaVuSans-Bold-79" d="M 78 3500 
L 1197 3500 
L 2138 1125 
L 2938 3500 
L 4056 3500 
L 2584 -331 
Q 2363 -916 2067 -1148 
Q 1772 -1381 1288 -1381 
L 641 -1381 
L 641 -647 
L 991 -647 
Q 1275 -647 1404 -556 
Q 1534 -466 1606 -231 
L 1638 -134 
L 78 3500 
z
" transform="scale(0.015625)"/>
      <path id="DejaVuSans-Bold-61" d="M 2106 1575 
Q 1756 1575 1579 1456 
Q 1403 1338 1403 1106 
Q 1403 894 1545 773 
Q 1688 653 1941 653 
Q 2256 653 2472 879 
Q 2688 1106 2688 1447 
L 2688 1575 
L 2106 1575 
z
M 3816 1997 
L 3816 0 
L 2688 0 
L 2688 519 
Q 2463 200 2181 54 
Q 1900 -91 1497 -91 
Q 953 -91 614 226 
Q 275 544 275 1050 
Q 275 1666 698 1953 
Q 1122 2241 2028 2241 
L 2688 2241 
L 2688 2328 
Q 2688 2594 2478 2717 
Q 2269 2841 1825 2841 
Q 1466 2841 1156 2769 
Q 847 2697 581 2553 
L 581 3406 
Q 941 3494 1303 3539 
Q 1666 3584 2028 3584 
Q 2975 3584 3395 3211 
Q 3816 2838 3816 1997 
z
" transform="scale(0.015625)"/>
      <path id="DejaVuSans-Bold-67" d="M 2919 594 
Q 2688 288 2409 144 
Q 2131 0 1766 0 
Q 1125 0 706 504 
Q 288 1009 288 1791 
Q 288 2575 706 3076 
Q 1125 3578 1766 3578 
Q 2131 3578 2409 3434 
Q 2688 3291 2919 2981 
L 2919 3500 
L 4044 3500 
L 4044 353 
Q 4044 -491 3511 -936 
Q 2978 -1381 1966 -1381 
Q 1638 -1381 1331 -1331 
Q 1025 -1281 716 -1178 
L 716 -306 
Q 1009 -475 1290 -558 
Q 1572 -641 1856 -641 
Q 2406 -641 2662 -400 
Q 2919 -159 2919 353 
L 2919 594 
z
M 2181 2772 
Q 1834 2772 1640 2515 
Q 1447 2259 1447 1791 
Q 1447 1309 1634 1061 
Q 1822 813 2181 813 
Q 2531 813 2725 1069 
Q 2919 1325 2919 1791 
Q 2919 2259 2725 2515 
Q 2531 2772 2181 2772 
z
" transform="scale(0.015625)"/>
     </defs>
     <use xlink:href="#DejaVuSans-Bold-56"/>
     <use xlink:href="#DejaVuSans-Bold-6f" x="71.892578"/>
     <use xlink:href="#DejaVuSans-Bold-79" x="140.59375"/>
     <use xlink:href="#DejaVuSans-Bold-61" x="205.779297"/>
     <use xlink:href="#DejaVuSans-Bold-67" x="273.259766"/>
     <use xlink:href="#DejaVuSans-Bold-65" x="344.841797"/>
     <use xlink:href="#DejaVuSans-Bold-28" x="412.664062"/>
     <use xlink:href="#DejaVuSans-Bold-31" x="458.367188"/>
     <use xlink:href="#DejaVuSans-Bold-29" x="527.947266"/>
    </g>
   </g>
   <g id="text_24">
    <!-- Atlas(1) -->
    <g transform="translate(1369.8 125.243437) scale(0.09 -0.09)">
     <defs>
      <path id="DejaVuSans-Bold-41" d="M 3419 850 
L 1538 850 
L 1241 0 
L 31 0 
L 1759 4666 
L 3194 4666 
L 4922 0 
L 3713 0 
L 3419 850 
z
M 1838 1716 
L 3116 1716 
L 2478 3572 
L 1838 1716 
z
" transform="scale(0.015625)"/>
      <path id="DejaVuSans-Bold-6c" d="M 538 4863 
L 1656 4863 
L 1656 0 
L 538 0 
L 538 4863 
z
" transform="scale(0.015625)"/>
      <path id="DejaVuSans-Bold-73" d="M 3272 3391 
L 3272 2541 
Q 2913 2691 2578 2766 
Q 2244 2841 1947 2841 
Q 1628 2841 1473 2761 
Q 1319 2681 1319 2516 
Q 1319 2381 1436 2309 
Q 1553 2238 1856 2203 
L 2053 2175 
Q 2913 2066 3209 1816 
Q 3506 1566 3506 1031 
Q 3506 472 3093 190 
Q 2681 -91 1863 -91 
Q 1516 -91 1145 -36 
Q 775 19 384 128 
L 384 978 
Q 719 816 1070 734 
Q 1422 653 1784 653 
Q 2113 653 2278 743 
Q 2444 834 2444 1013 
Q 2444 1163 2330 1236 
Q 2216 1309 1875 1350 
L 1678 1375 
Q 931 1469 631 1722 
Q 331 1975 331 2491 
Q 331 3047 712 3315 
Q 1094 3584 1881 3584 
Q 2191 3584 2531 3537 
Q 2872 3491 3272 3391 
z
" transform="scale(0.015625)"/>
     </defs>
     <use xlink:href="#DejaVuSans-Bold-41"/>
     <use xlink:href="#DejaVuSans-Bold-74" x="77.392578"/>
     <use xlink:href="#DejaVuSans-Bold-6c" x="125.195312"/>
     <use xlink:href="#DejaVuSans-Bold-61" x="159.472656"/>
     <use xlink:href="#DejaVuSans-Bold-73" x="226.953125"/>
     <use xlink:href="#DejaVuSans-Bold-28" x="286.474609"/>
     <use xlink:href="#DejaVuSans-Bold-31" x="332.177734"/>
     <use xlink:href="#DejaVuSans-Bold-29" x="401.757812"/>
    </g>
   </g>
   <g id="text_25">
    <!-- ARC&lt;-&gt;CRU -->
    <g style="fill: #666666" transform="translate(893.439407 680.071563) rotate(-90) scale(0.14 -0.14)">
     <defs>
      <path id="DejaVuSans-41" d="M 2188 4044 
L 1331 1722 
L 3047 1722 
L 2188 4044 
z
M 1831 4666 
L 2547 4666 
L 4325 0 
L 3669 0 
L 3244 1197 
L 1141 1197 
L 716 0 
L 50 0 
L 1831 4666 
z
" transform="scale(0.015625)"/>
      <path id="DejaVuSans-52" d="M 2841 2188 
Q 3044 2119 3236 1894 
Q 3428 1669 3622 1275 
L 4263 0 
L 3584 0 
L 2988 1197 
Q 2756 1666 2539 1819 
Q 2322 1972 1947 1972 
L 1259 1972 
L 1259 0 
L 628 0 
L 628 4666 
L 2053 4666 
Q 2853 4666 3247 4331 
Q 3641 3997 3641 3322 
Q 3641 2881 3436 2590 
Q 3231 2300 2841 2188 
z
M 1259 4147 
L 1259 2491 
L 2053 2491 
Q 2509 2491 2742 2702 
Q 2975 2913 2975 3322 
Q 2975 3731 2742 3939 
Q 2509 4147 2053 4147 
L 1259 4147 
z
" transform="scale(0.015625)"/>
      <path id="DejaVuSans-43" d="M 4122 4306 
L 4122 3641 
Q 3803 3938 3442 4084 
Q 3081 4231 2675 4231 
Q 1875 4231 1450 3742 
Q 1025 3253 1025 2328 
Q 1025 1406 1450 917 
Q 1875 428 2675 428 
Q 3081 428 3442 575 
Q 3803 722 4122 1019 
L 4122 359 
Q 3791 134 3420 21 
Q 3050 -91 2638 -91 
Q 1578 -91 968 557 
Q 359 1206 359 2328 
Q 359 3453 968 4101 
Q 1578 4750 2638 4750 
Q 3056 4750 3426 4639 
Q 3797 4528 4122 4306 
z
" transform="scale(0.015625)"/>
      <path id="DejaVuSans-3c" d="M 4684 3150 
L 1459 2003 
L 4684 863 
L 4684 294 
L 678 1747 
L 678 2266 
L 4684 3719 
L 4684 3150 
z
" transform="scale(0.015625)"/>
      <path id="DejaVuSans-2d" d="M 313 2009 
L 1997 2009 
L 1997 1497 
L 313 1497 
L 313 2009 
z
" transform="scale(0.015625)"/>
      <path id="DejaVuSans-3e" d="M 678 3150 
L 678 3719 
L 4684 2266 
L 4684 1747 
L 678 294 
L 678 863 
L 3897 2003 
L 678 3150 
z
" transform="scale(0.015625)"/>
      <path id="DejaVuSans-55" d="M 556 4666 
L 1191 4666 
L 1191 1831 
Q 1191 1081 1462 751 
Q 1734 422 2344 422 
Q 2950 422 3222 751 
Q 3494 1081 3494 1831 
L 3494 4666 
L 4128 4666 
L 4128 1753 
Q 4128 841 3676 375 
Q 3225 -91 2344 -91 
Q 1459 -91 1007 375 
Q 556 841 556 1753 
L 556 4666 
z
" transform="scale(0.015625)"/>
     </defs>
     <use xlink:href="#DejaVuSans-41"/>
     <use xlink:href="#DejaVuSans-52" x="68.408203"/>
     <use xlink:href="#DejaVuSans-43" x="132.890625"/>
     <use xlink:href="#DejaVuSans-3c" x="202.714844"/>
     <use xlink:href="#DejaVuSans-2d" x="286.503906"/>
     <use xlink:href="#DejaVuSans-3e" x="322.587891"/>
     <use xlink:href="#DejaVuSans-43" x="406.376953"/>
     <use xlink:href="#DejaVuSans-52" x="476.201172"/>
     <use xlink:href="#DejaVuSans-55" x="545.683594"/>
    </g>
   </g>
   <g id="text_26">
    <!-- CRU&lt;-&gt;HUR -->
    <g style="fill: #666666" transform="translate(750.645538 680.071563) rotate(-90) scale(0.14 -0.14)">
     <defs>
      <path id="DejaVuSans-48" d="M 628 4666 
L 1259 4666 
L 1259 2753 
L 3553 2753 
L 3553 4666 
L 4184 4666 
L 4184 0 
L 3553 0 
L 3553 2222 
L 1259 2222 
L 1259 0 
L 628 0 
L 628 4666 
z
" transform="scale(0.015625)"/>
     </defs>
     <use xlink:href="#DejaVuSans-43"/>
     <use xlink:href="#DejaVuSans-52" x="69.824219"/>
     <use xlink:href="#DejaVuSans-55" x="139.306641"/>
     <use xlink:href="#DejaVuSans-3c" x="212.5"/>
     <use xlink:href="#DejaVuSans-2d" x="296.289062"/>
     <use xlink:href="#DejaVuSans-3e" x="332.373047"/>
     <use xlink:href="#DejaVuSans-48" x="416.162109"/>
     <use xlink:href="#DejaVuSans-55" x="491.357422"/>
     <use xlink:href="#DejaVuSans-52" x="564.550781"/>
    </g>
   </g>
   <g id="text_27">
    <!-- CRU&lt;-&gt;MIC -->
    <g style="fill: #666666" transform="translate(1124.166077 680.071563) rotate(-90) scale(0.14 -0.14)">
     <defs>
      <path id="DejaVuSans-4d" d="M 628 4666 
L 1569 4666 
L 2759 1491 
L 3956 4666 
L 4897 4666 
L 4897 0 
L 4281 0 
L 4281 4097 
L 3078 897 
L 2444 897 
L 1241 4097 
L 1241 0 
L 628 0 
L 628 4666 
z
" transform="scale(0.015625)"/>
      <path id="DejaVuSans-49" d="M 628 4666 
L 1259 4666 
L 1259 0 
L 628 0 
L 628 4666 
z
" transform="scale(0.015625)"/>
     </defs>
     <use xlink:href="#DejaVuSans-43"/>
     <use xlink:href="#DejaVuSans-52" x="69.824219"/>
     <use xlink:href="#DejaVuSans-55" x="139.306641"/>
     <use xlink:href="#DejaVuSans-3c" x="212.5"/>
     <use xlink:href="#DejaVuSans-2d" x="296.289062"/>
     <use xlink:href="#DejaVuSans-3e" x="332.373047"/>
     <use xlink:href="#DejaVuSans-4d" x="416.162109"/>
     <use xlink:href="#DejaVuSans-49" x="502.441406"/>
     <use xlink:href="#DejaVuSans-43" x="531.933594"/>
    </g>
   </g>
   <g id="text_28">
    <!-- ARC&lt;-&gt;HUR -->
    <g style="fill: #666666" transform="translate(598.0746 680.071563) rotate(-90) scale(0.14 -0.14)">
     <use xlink:href="#DejaVuSans-41"/>
     <use xlink:href="#DejaVuSans-52" x="68.408203"/>
     <use xlink:href="#DejaVuSans-43" x="132.890625"/>
     <use xlink:href="#DejaVuSans-3c" x="202.714844"/>
     <use xlink:href="#DejaVuSans-2d" x="286.503906"/>
     <use xlink:href="#DejaVuSans-3e" x="322.587891"/>
     <use xlink:href="#DejaVuSans-48" x="406.376953"/>
     <use xlink:href="#DejaVuSans-55" x="481.572266"/>
     <use xlink:href="#DejaVuSans-52" x="554.765625"/>
    </g>
   </g>
   <g id="text_29">
    <!-- HUR&lt;-&gt;MIC -->
    <g style="fill: #666666" transform="translate(834.138364 680.071563) rotate(-90) scale(0.14 -0.14)">
     <use xlink:href="#DejaVuSans-48"/>
     <use xlink:href="#DejaVuSans-55" x="75.195312"/>
     <use xlink:href="#DejaVuSans-52" x="148.388672"/>
     <use xlink:href="#DejaVuSans-3c" x="217.871094"/>
     <use xlink:href="#DejaVuSans-2d" x="301.660156"/>
     <use xlink:href="#DejaVuSans-3e" x="337.744141"/>
     <use xlink:href="#DejaVuSans-4d" x="421.533203"/>
     <use xlink:href="#DejaVuSans-49" x="507.8125"/>
     <use xlink:href="#DejaVuSans-43" x="537.304688"/>
    </g>
   </g>
   <g id="text_30">
    <!-- ARC&lt;-&gt;MIC -->
    <g style="fill: #666666" transform="translate(1154.318377 680.071563) rotate(-90) scale(0.14 -0.14)">
     <use xlink:href="#DejaVuSans-41"/>
     <use xlink:href="#DejaVuSans-52" x="68.408203"/>
     <use xlink:href="#DejaVuSans-43" x="132.890625"/>
     <use xlink:href="#DejaVuSans-3c" x="202.714844"/>
     <use xlink:href="#DejaVuSans-2d" x="286.503906"/>
     <use xlink:href="#DejaVuSans-3e" x="322.587891"/>
     <use xlink:href="#DejaVuSans-4d" x="406.376953"/>
     <use xlink:href="#DejaVuSans-49" x="492.65625"/>
     <use xlink:href="#DejaVuSans-43" x="522.148438"/>
    </g>
   </g>
   <g id="text_31">
    <!-- Earth&lt;-&gt;Mars (Min) -->
    <g style="fill: #666666" transform="translate(1080.359333 680.071563) rotate(-90) scale(0.14 -0.14)">
     <defs>
      <path id="DejaVuSans-45" d="M 628 4666 
L 3578 4666 
L 3578 4134 
L 1259 4134 
L 1259 2753 
L 3481 2753 
L 3481 2222 
L 1259 2222 
L 1259 531 
L 3634 531 
L 3634 0 
L 628 0 
L 628 4666 
z
" transform="scale(0.015625)"/>
      <path id="DejaVuSans-61" d="M 2194 1759 
Q 1497 1759 1228 1600 
Q 959 1441 959 1056 
Q 959 750 1161 570 
Q 1363 391 1709 391 
Q 2188 391 2477 730 
Q 2766 1069 2766 1631 
L 2766 1759 
L 2194 1759 
z
M 3341 1997 
L 3341 0 
L 2766 0 
L 2766 531 
Q 2569 213 2275 61 
Q 1981 -91 1556 -91 
Q 1019 -91 701 211 
Q 384 513 384 1019 
Q 384 1609 779 1909 
Q 1175 2209 1959 2209 
L 2766 2209 
L 2766 2266 
Q 2766 2663 2505 2880 
Q 2244 3097 1772 3097 
Q 1472 3097 1187 3025 
Q 903 2953 641 2809 
L 641 3341 
Q 956 3463 1253 3523 
Q 1550 3584 1831 3584 
Q 2591 3584 2966 3190 
Q 3341 2797 3341 1997 
z
" transform="scale(0.015625)"/>
      <path id="DejaVuSans-72" d="M 2631 2963 
Q 2534 3019 2420 3045 
Q 2306 3072 2169 3072 
Q 1681 3072 1420 2755 
Q 1159 2438 1159 1844 
L 1159 0 
L 581 0 
L 581 3500 
L 1159 3500 
L 1159 2956 
Q 1341 3275 1631 3429 
Q 1922 3584 2338 3584 
Q 2397 3584 2469 3576 
Q 2541 3569 2628 3553 
L 2631 2963 
z
" transform="scale(0.015625)"/>
      <path id="DejaVuSans-74" d="M 1172 4494 
L 1172 3500 
L 2356 3500 
L 2356 3053 
L 1172 3053 
L 1172 1153 
Q 1172 725 1289 603 
Q 1406 481 1766 481 
L 2356 481 
L 2356 0 
L 1766 0 
Q 1100 0 847 248 
Q 594 497 594 1153 
L 594 3053 
L 172 3053 
L 172 3500 
L 594 3500 
L 594 4494 
L 1172 4494 
z
" transform="scale(0.015625)"/>
      <path id="DejaVuSans-68" d="M 3513 2113 
L 3513 0 
L 2938 0 
L 2938 2094 
Q 2938 2591 2744 2837 
Q 2550 3084 2163 3084 
Q 1697 3084 1428 2787 
Q 1159 2491 1159 1978 
L 1159 0 
L 581 0 
L 581 4863 
L 1159 4863 
L 1159 2956 
Q 1366 3272 1645 3428 
Q 1925 3584 2291 3584 
Q 2894 3584 3203 3211 
Q 3513 2838 3513 2113 
z
" transform="scale(0.015625)"/>
      <path id="DejaVuSans-73" d="M 2834 3397 
L 2834 2853 
Q 2591 2978 2328 3040 
Q 2066 3103 1784 3103 
Q 1356 3103 1142 2972 
Q 928 2841 928 2578 
Q 928 2378 1081 2264 
Q 1234 2150 1697 2047 
L 1894 2003 
Q 2506 1872 2764 1633 
Q 3022 1394 3022 966 
Q 3022 478 2636 193 
Q 2250 -91 1575 -91 
Q 1294 -91 989 -36 
Q 684 19 347 128 
L 347 722 
Q 666 556 975 473 
Q 1284 391 1588 391 
Q 1994 391 2212 530 
Q 2431 669 2431 922 
Q 2431 1156 2273 1281 
Q 2116 1406 1581 1522 
L 1381 1569 
Q 847 1681 609 1914 
Q 372 2147 372 2553 
Q 372 3047 722 3315 
Q 1072 3584 1716 3584 
Q 2034 3584 2315 3537 
Q 2597 3491 2834 3397 
z
" transform="scale(0.015625)"/>
      <path id="DejaVuSans-28" d="M 1984 4856 
Q 1566 4138 1362 3434 
Q 1159 2731 1159 2009 
Q 1159 1288 1364 580 
Q 1569 -128 1984 -844 
L 1484 -844 
Q 1016 -109 783 600 
Q 550 1309 550 2009 
Q 550 2706 781 3412 
Q 1013 4119 1484 4856 
L 1984 4856 
z
" transform="scale(0.015625)"/>
      <path id="DejaVuSans-69" d="M 603 3500 
L 1178 3500 
L 1178 0 
L 603 0 
L 603 3500 
z
M 603 4863 
L 1178 4863 
L 1178 4134 
L 603 4134 
L 603 4863 
z
" transform="scale(0.015625)"/>
      <path id="DejaVuSans-6e" d="M 3513 2113 
L 3513 0 
L 2938 0 
L 2938 2094 
Q 2938 2591 2744 2837 
Q 2550 3084 2163 3084 
Q 1697 3084 1428 2787 
Q 1159 2491 1159 1978 
L 1159 0 
L 581 0 
L 581 3500 
L 1159 3500 
L 1159 2956 
Q 1366 3272 1645 3428 
Q 1925 3584 2291 3584 
Q 2894 3584 3203 3211 
Q 3513 2838 3513 2113 
z
" transform="scale(0.015625)"/>
      <path id="DejaVuSans-29" d="M 513 4856 
L 1013 4856 
Q 1481 4119 1714 3412 
Q 1947 2706 1947 2009 
Q 1947 1309 1714 600 
Q 1481 -109 1013 -844 
L 513 -844 
Q 928 -128 1133 580 
Q 1338 1288 1338 2009 
Q 1338 2731 1133 3434 
Q 928 4138 513 4856 
z
" transform="scale(0.015625)"/>
     </defs>
     <use xlink:href="#DejaVuSans-45"/>
     <use xlink:href="#DejaVuSans-61" x="63.183594"/>
     <use xlink:href="#DejaVuSans-72" x="124.462891"/>
     <use xlink:href="#DejaVuSans-74" x="165.576172"/>
     <use xlink:href="#DejaVuSans-68" x="204.785156"/>
     <use xlink:href="#DejaVuSans-3c" x="268.164062"/>
     <use xlink:href="#DejaVuSans-2d" x="351.953125"/>
     <use xlink:href="#DejaVuSans-3e" x="388.037109"/>
     <use xlink:href="#DejaVuSans-4d" x="471.826172"/>
     <use xlink:href="#DejaVuSans-61" x="558.105469"/>
     <use xlink:href="#DejaVuSans-72" x="619.384766"/>
     <use xlink:href="#DejaVuSans-73" x="660.498047"/>
     <use xlink:href="#DejaVuSans-20" x="712.597656"/>
     <use xlink:href="#DejaVuSans-28" x="744.384766"/>
     <use xlink:href="#DejaVuSans-4d" x="783.398438"/>
     <use xlink:href="#DejaVuSans-69" x="869.677734"/>
     <use xlink:href="#DejaVuSans-6e" x="897.460938"/>
     <use xlink:href="#DejaVuSans-29" x="960.839844"/>
    </g>
   </g>
   <g id="text_32">
    <!-- Travel time (in seconds) for any realistic distance in Stanton (in meters) given each quantum drive in Star Citizen (Remeber: Lower time is better) -->
    <g transform="translate(373.495313 62.16525) scale(0.12 -0.12)">
     <defs>
      <path id="DejaVuSans-54" d="M -19 4666 
L 3928 4666 
L 3928 4134 
L 2272 4134 
L 2272 0 
L 1638 0 
L 1638 4134 
L -19 4134 
L -19 4666 
z
" transform="scale(0.015625)"/>
      <path id="DejaVuSans-76" d="M 191 3500 
L 800 3500 
L 1894 563 
L 2988 3500 
L 3597 3500 
L 2284 0 
L 1503 0 
L 191 3500 
z
" transform="scale(0.015625)"/>
      <path id="DejaVuSans-65" d="M 3597 1894 
L 3597 1613 
L 953 1613 
Q 991 1019 1311 708 
Q 1631 397 2203 397 
Q 2534 397 2845 478 
Q 3156 559 3463 722 
L 3463 178 
Q 3153 47 2828 -22 
Q 2503 -91 2169 -91 
Q 1331 -91 842 396 
Q 353 884 353 1716 
Q 353 2575 817 3079 
Q 1281 3584 2069 3584 
Q 2775 3584 3186 3129 
Q 3597 2675 3597 1894 
z
M 3022 2063 
Q 3016 2534 2758 2815 
Q 2500 3097 2075 3097 
Q 1594 3097 1305 2825 
Q 1016 2553 972 2059 
L 3022 2063 
z
" transform="scale(0.015625)"/>
      <path id="DejaVuSans-6c" d="M 603 4863 
L 1178 4863 
L 1178 0 
L 603 0 
L 603 4863 
z
" transform="scale(0.015625)"/>
      <path id="DejaVuSans-63" d="M 3122 3366 
L 3122 2828 
Q 2878 2963 2633 3030 
Q 2388 3097 2138 3097 
Q 1578 3097 1268 2742 
Q 959 2388 959 1747 
Q 959 1106 1268 751 
Q 1578 397 2138 397 
Q 2388 397 2633 464 
Q 2878 531 3122 666 
L 3122 134 
Q 2881 22 2623 -34 
Q 2366 -91 2075 -91 
Q 1284 -91 818 406 
Q 353 903 353 1747 
Q 353 2603 823 3093 
Q 1294 3584 2113 3584 
Q 2378 3584 2631 3529 
Q 2884 3475 3122 3366 
z
" transform="scale(0.015625)"/>
      <path id="DejaVuSans-6f" d="M 1959 3097 
Q 1497 3097 1228 2736 
Q 959 2375 959 1747 
Q 959 1119 1226 758 
Q 1494 397 1959 397 
Q 2419 397 2687 759 
Q 2956 1122 2956 1747 
Q 2956 2369 2687 2733 
Q 2419 3097 1959 3097 
z
M 1959 3584 
Q 2709 3584 3137 3096 
Q 3566 2609 3566 1747 
Q 3566 888 3137 398 
Q 2709 -91 1959 -91 
Q 1206 -91 779 398 
Q 353 888 353 1747 
Q 353 2609 779 3096 
Q 1206 3584 1959 3584 
z
" transform="scale(0.015625)"/>
      <path id="DejaVuSans-64" d="M 2906 2969 
L 2906 4863 
L 3481 4863 
L 3481 0 
L 2906 0 
L 2906 525 
Q 2725 213 2448 61 
Q 2172 -91 1784 -91 
Q 1150 -91 751 415 
Q 353 922 353 1747 
Q 353 2572 751 3078 
Q 1150 3584 1784 3584 
Q 2172 3584 2448 3432 
Q 2725 3281 2906 2969 
z
M 947 1747 
Q 947 1113 1208 752 
Q 1469 391 1925 391 
Q 2381 391 2643 752 
Q 2906 1113 2906 1747 
Q 2906 2381 2643 2742 
Q 2381 3103 1925 3103 
Q 1469 3103 1208 2742 
Q 947 2381 947 1747 
z
" transform="scale(0.015625)"/>
      <path id="DejaVuSans-66" d="M 2375 4863 
L 2375 4384 
L 1825 4384 
Q 1516 4384 1395 4259 
Q 1275 4134 1275 3809 
L 1275 3500 
L 2222 3500 
L 2222 3053 
L 1275 3053 
L 1275 0 
L 697 0 
L 697 3053 
L 147 3053 
L 147 3500 
L 697 3500 
L 697 3744 
Q 697 4328 969 4595 
Q 1241 4863 1831 4863 
L 2375 4863 
z
" transform="scale(0.015625)"/>
      <path id="DejaVuSans-79" d="M 2059 -325 
Q 1816 -950 1584 -1140 
Q 1353 -1331 966 -1331 
L 506 -1331 
L 506 -850 
L 844 -850 
Q 1081 -850 1212 -737 
Q 1344 -625 1503 -206 
L 1606 56 
L 191 3500 
L 800 3500 
L 1894 763 
L 2988 3500 
L 3597 3500 
L 2059 -325 
z
" transform="scale(0.015625)"/>
      <path id="DejaVuSans-53" d="M 3425 4513 
L 3425 3897 
Q 3066 4069 2747 4153 
Q 2428 4238 2131 4238 
Q 1616 4238 1336 4038 
Q 1056 3838 1056 3469 
Q 1056 3159 1242 3001 
Q 1428 2844 1947 2747 
L 2328 2669 
Q 3034 2534 3370 2195 
Q 3706 1856 3706 1288 
Q 3706 609 3251 259 
Q 2797 -91 1919 -91 
Q 1588 -91 1214 -16 
Q 841 59 441 206 
L 441 856 
Q 825 641 1194 531 
Q 1563 422 1919 422 
Q 2459 422 2753 634 
Q 3047 847 3047 1241 
Q 3047 1584 2836 1778 
Q 2625 1972 2144 2069 
L 1759 2144 
Q 1053 2284 737 2584 
Q 422 2884 422 3419 
Q 422 4038 858 4394 
Q 1294 4750 2059 4750 
Q 2388 4750 2728 4690 
Q 3069 4631 3425 4513 
z
" transform="scale(0.015625)"/>
      <path id="DejaVuSans-67" d="M 2906 1791 
Q 2906 2416 2648 2759 
Q 2391 3103 1925 3103 
Q 1463 3103 1205 2759 
Q 947 2416 947 1791 
Q 947 1169 1205 825 
Q 1463 481 1925 481 
Q 2391 481 2648 825 
Q 2906 1169 2906 1791 
z
M 3481 434 
Q 3481 -459 3084 -895 
Q 2688 -1331 1869 -1331 
Q 1566 -1331 1297 -1286 
Q 1028 -1241 775 -1147 
L 775 -588 
Q 1028 -725 1275 -790 
Q 1522 -856 1778 -856 
Q 2344 -856 2625 -561 
Q 2906 -266 2906 331 
L 2906 616 
Q 2728 306 2450 153 
Q 2172 0 1784 0 
Q 1141 0 747 490 
Q 353 981 353 1791 
Q 353 2603 747 3093 
Q 1141 3584 1784 3584 
Q 2172 3584 2450 3431 
Q 2728 3278 2906 2969 
L 2906 3500 
L 3481 3500 
L 3481 434 
z
" transform="scale(0.015625)"/>
      <path id="DejaVuSans-71" d="M 947 1747 
Q 947 1113 1208 752 
Q 1469 391 1925 391 
Q 2381 391 2643 752 
Q 2906 1113 2906 1747 
Q 2906 2381 2643 2742 
Q 2381 3103 1925 3103 
Q 1469 3103 1208 2742 
Q 947 2381 947 1747 
z
M 2906 525 
Q 2725 213 2448 61 
Q 2172 -91 1784 -91 
Q 1150 -91 751 415 
Q 353 922 353 1747 
Q 353 2572 751 3078 
Q 1150 3584 1784 3584 
Q 2172 3584 2448 3432 
Q 2725 3281 2906 2969 
L 2906 3500 
L 3481 3500 
L 3481 -1331 
L 2906 -1331 
L 2906 525 
z
" transform="scale(0.015625)"/>
      <path id="DejaVuSans-75" d="M 544 1381 
L 544 3500 
L 1119 3500 
L 1119 1403 
Q 1119 906 1312 657 
Q 1506 409 1894 409 
Q 2359 409 2629 706 
Q 2900 1003 2900 1516 
L 2900 3500 
L 3475 3500 
L 3475 0 
L 2900 0 
L 2900 538 
Q 2691 219 2414 64 
Q 2138 -91 1772 -91 
Q 1169 -91 856 284 
Q 544 659 544 1381 
z
M 1991 3584 
L 1991 3584 
z
" transform="scale(0.015625)"/>
      <path id="DejaVuSans-7a" d="M 353 3500 
L 3084 3500 
L 3084 2975 
L 922 459 
L 3084 459 
L 3084 0 
L 275 0 
L 275 525 
L 2438 3041 
L 353 3041 
L 353 3500 
z
" transform="scale(0.015625)"/>
      <path id="DejaVuSans-62" d="M 3116 1747 
Q 3116 2381 2855 2742 
Q 2594 3103 2138 3103 
Q 1681 3103 1420 2742 
Q 1159 2381 1159 1747 
Q 1159 1113 1420 752 
Q 1681 391 2138 391 
Q 2594 391 2855 752 
Q 3116 1113 3116 1747 
z
M 1159 2969 
Q 1341 3281 1617 3432 
Q 1894 3584 2278 3584 
Q 2916 3584 3314 3078 
Q 3713 2572 3713 1747 
Q 3713 922 3314 415 
Q 2916 -91 2278 -91 
Q 1894 -91 1617 61 
Q 1341 213 1159 525 
L 1159 0 
L 581 0 
L 581 4863 
L 1159 4863 
L 1159 2969 
z
" transform="scale(0.015625)"/>
      <path id="DejaVuSans-4c" d="M 628 4666 
L 1259 4666 
L 1259 531 
L 3531 531 
L 3531 0 
L 628 0 
L 628 4666 
z
" transform="scale(0.015625)"/>
      <path id="DejaVuSans-77" d="M 269 3500 
L 844 3500 
L 1563 769 
L 2278 3500 
L 2956 3500 
L 3675 769 
L 4391 3500 
L 4966 3500 
L 4050 0 
L 3372 0 
L 2619 2869 
L 1863 0 
L 1184 0 
L 269 3500 
z
" transform="scale(0.015625)"/>
     </defs>
     <use xlink:href="#DejaVuSans-54"/>
     <use xlink:href="#DejaVuSans-72" x="46.333984"/>
     <use xlink:href="#DejaVuSans-61" x="87.447266"/>
     <use xlink:href="#DejaVuSans-76" x="148.726562"/>
     <use xlink:href="#DejaVuSans-65" x="207.90625"/>
     <use xlink:href="#DejaVuSans-6c" x="269.429688"/>
     <use xlink:href="#DejaVuSans-20" x="297.212891"/>
     <use xlink:href="#DejaVuSans-74" x="329"/>
     <use xlink:href="#DejaVuSans-69" x="368.208984"/>
     <use xlink:href="#DejaVuSans-6d" x="395.992188"/>
     <use xlink:href="#DejaVuSans-65" x="493.404297"/>
     <use xlink:href="#DejaVuSans-20" x="554.927734"/>
     <use xlink:href="#DejaVuSans-28" x="586.714844"/>
     <use xlink:href="#DejaVuSans-69" x="625.728516"/>
     <use xlink:href="#DejaVuSans-6e" x="653.511719"/>
     <use xlink:href="#DejaVuSans-20" x="716.890625"/>
     <use xlink:href="#DejaVuSans-73" x="748.677734"/>
     <use xlink:href="#DejaVuSans-65" x="800.777344"/>
     <use xlink:href="#DejaVuSans-63" x="862.300781"/>
     <use xlink:href="#DejaVuSans-6f" x="917.28125"/>
     <use xlink:href="#DejaVuSans-6e" x="978.462891"/>
     <use xlink:href="#DejaVuSans-64" x="1041.841797"/>
     <use xlink:href="#DejaVuSans-73" x="1105.318359"/>
     <use xlink:href="#DejaVuSans-29" x="1157.417969"/>
     <use xlink:href="#DejaVuSans-20" x="1196.431641"/>
     <use xlink:href="#DejaVuSans-66" x="1228.21875"/>
     <use xlink:href="#DejaVuSans-6f" x="1263.423828"/>
     <use xlink:href="#DejaVuSans-72" x="1324.605469"/>
     <use xlink:href="#DejaVuSans-20" x="1365.71875"/>
     <use xlink:href="#DejaVuSans-61" x="1397.505859"/>
     <use xlink:href="#DejaVuSans-6e" x="1458.785156"/>
     <use xlink:href="#DejaVuSans-79" x="1522.164062"/>
     <use xlink:href="#DejaVuSans-20" x="1581.34375"/>
     <use xlink:href="#DejaVuSans-72" x="1613.130859"/>
     <use xlink:href="#DejaVuSans-65" x="1651.994141"/>
     <use xlink:href="#DejaVuSans-61" x="1713.517578"/>
     <use xlink:href="#DejaVuSans-6c" x="1774.796875"/>
     <use xlink:href="#DejaVuSans-69" x="1802.580078"/>
     <use xlink:href="#DejaVuSans-73" x="1830.363281"/>
     <use xlink:href="#DejaVuSans-74" x="1882.462891"/>
     <use xlink:href="#DejaVuSans-69" x="1921.671875"/>
     <use xlink:href="#DejaVuSans-63" x="1949.455078"/>
     <use xlink:href="#DejaVuSans-20" x="2004.435547"/>
     <use xlink:href="#DejaVuSans-64" x="2036.222656"/>
     <use xlink:href="#DejaVuSans-69" x="2099.699219"/>
     <use xlink:href="#DejaVuSans-73" x="2127.482422"/>
     <use xlink:href="#DejaVuSans-74" x="2179.582031"/>
     <use xlink:href="#DejaVuSans-61" x="2218.791016"/>
     <use xlink:href="#DejaVuSans-6e" x="2280.070312"/>
     <use xlink:href="#DejaVuSans-63" x="2343.449219"/>
     <use xlink:href="#DejaVuSans-65" x="2398.429688"/>
     <use xlink:href="#DejaVuSans-20" x="2459.953125"/>
     <use xlink:href="#DejaVuSans-69" x="2491.740234"/>
     <use xlink:href="#DejaVuSans-6e" x="2519.523438"/>
     <use xlink:href="#DejaVuSans-20" x="2582.902344"/>
     <use xlink:href="#DejaVuSans-53" x="2614.689453"/>
     <use xlink:href="#DejaVuSans-74" x="2678.166016"/>
     <use xlink:href="#DejaVuSans-61" x="2717.375"/>
     <use xlink:href="#DejaVuSans-6e" x="2778.654297"/>
     <use xlink:href="#DejaVuSans-74" x="2842.033203"/>
     <use xlink:href="#DejaVuSans-6f" x="2881.242188"/>
     <use xlink:href="#DejaVuSans-6e" x="2942.423828"/>
     <use xlink:href="#DejaVuSans-20" x="3005.802734"/>
     <use xlink:href="#DejaVuSans-28" x="3037.589844"/>
     <use xlink:href="#DejaVuSans-69" x="3076.603516"/>
     <use xlink:href="#DejaVuSans-6e" x="3104.386719"/>
     <use xlink:href="#DejaVuSans-20" x="3167.765625"/>
     <use xlink:href="#DejaVuSans-6d" x="3199.552734"/>
     <use xlink:href="#DejaVuSans-65" x="3296.964844"/>
     <use xlink:href="#DejaVuSans-74" x="3358.488281"/>
     <use xlink:href="#DejaVuSans-65" x="3397.697266"/>
     <use xlink:href="#DejaVuSans-72" x="3459.220703"/>
     <use xlink:href="#DejaVuSans-73" x="3500.333984"/>
     <use xlink:href="#DejaVuSans-29" x="3552.433594"/>
     <use xlink:href="#DejaVuSans-20" x="3591.447266"/>
     <use xlink:href="#DejaVuSans-67" x="3623.234375"/>
     <use xlink:href="#DejaVuSans-69" x="3686.710938"/>
     <use xlink:href="#DejaVuSans-76" x="3714.494141"/>
     <use xlink:href="#DejaVuSans-65" x="3773.673828"/>
     <use xlink:href="#DejaVuSans-6e" x="3835.197266"/>
     <use xlink:href="#DejaVuSans-20" x="3898.576172"/>
     <use xlink:href="#DejaVuSans-65" x="3930.363281"/>
     <use xlink:href="#DejaVuSans-61" x="3991.886719"/>
     <use xlink:href="#DejaVuSans-63" x="4053.166016"/>
     <use xlink:href="#DejaVuSans-68" x="4108.146484"/>
     <use xlink:href="#DejaVuSans-20" x="4171.525391"/>
     <use xlink:href="#DejaVuSans-71" x="4203.3125"/>
     <use xlink:href="#DejaVuSans-75" x="4266.789062"/>
     <use xlink:href="#DejaVuSans-61" x="4330.167969"/>
     <use xlink:href="#DejaVuSans-6e" x="4391.447266"/>
     <use xlink:href="#DejaVuSans-74" x="4454.826172"/>
     <use xlink:href="#DejaVuSans-75" x="4494.035156"/>
     <use xlink:href="#DejaVuSans-6d" x="4557.414062"/>
     <use xlink:href="#DejaVuSans-20" x="4654.826172"/>
     <use xlink:href="#DejaVuSans-64" x="4686.613281"/>
     <use xlink:href="#DejaVuSans-72" x="4750.089844"/>
     <use xlink:href="#DejaVuSans-69" x="4791.203125"/>
     <use xlink:href="#DejaVuSans-76" x="4818.986328"/>
     <use xlink:href="#DejaVuSans-65" x="4878.166016"/>
     <use xlink:href="#DejaVuSans-20" x="4939.689453"/>
     <use xlink:href="#DejaVuSans-69" x="4971.476562"/>
     <use xlink:href="#DejaVuSans-6e" x="4999.259766"/>
     <use xlink:href="#DejaVuSans-20" x="5062.638672"/>
     <use xlink:href="#DejaVuSans-53" x="5094.425781"/>
     <use xlink:href="#DejaVuSans-74" x="5157.902344"/>
     <use xlink:href="#DejaVuSans-61" x="5197.111328"/>
     <use xlink:href="#DejaVuSans-72" x="5258.390625"/>
     <use xlink:href="#DejaVuSans-20" x="5299.503906"/>
     <use xlink:href="#DejaVuSans-43" x="5331.291016"/>
     <use xlink:href="#DejaVuSans-69" x="5401.115234"/>
     <use xlink:href="#DejaVuSans-74" x="5428.898438"/>
     <use xlink:href="#DejaVuSans-69" x="5468.107422"/>
     <use xlink:href="#DejaVuSans-7a" x="5495.890625"/>
     <use xlink:href="#DejaVuSans-65" x="5548.380859"/>
     <use xlink:href="#DejaVuSans-6e" x="5609.904297"/>
     <use xlink:href="#DejaVuSans-20" x="5673.283203"/>
     <use xlink:href="#DejaVuSans-28" x="5705.070312"/>
     <use xlink:href="#DejaVuSans-52" x="5744.083984"/>
     <use xlink:href="#DejaVuSans-65" x="5809.066406"/>
     <use xlink:href="#DejaVuSans-6d" x="5870.589844"/>
     <use xlink:href="#DejaVuSans-65" x="5968.001953"/>
     <use xlink:href="#DejaVuSans-62" x="6029.525391"/>
     <use xlink:href="#DejaVuSans-65" x="6093.001953"/>
     <use xlink:href="#DejaVuSans-72" x="6154.525391"/>
     <use xlink:href="#DejaVuSans-3a" x="6193.888672"/>
     <use xlink:href="#DejaVuSans-20" x="6227.580078"/>
     <use xlink:href="#DejaVuSans-4c" x="6259.367188"/>
     <use xlink:href="#DejaVuSans-6f" x="6313.330078"/>
     <use xlink:href="#DejaVuSans-77" x="6374.511719"/>
     <use xlink:href="#DejaVuSans-65" x="6456.298828"/>
     <use xlink:href="#DejaVuSans-72" x="6517.822266"/>
     <use xlink:href="#DejaVuSans-20" x="6558.935547"/>
     <use xlink:href="#DejaVuSans-74" x="6590.722656"/>
     <use xlink:href="#DejaVuSans-69" x="6629.931641"/>
     <use xlink:href="#DejaVuSans-6d" x="6657.714844"/>
     <use xlink:href="#DejaVuSans-65" x="6755.126953"/>
     <use xlink:href="#DejaVuSans-20" x="6816.650391"/>
     <use xlink:href="#DejaVuSans-69" x="6848.4375"/>
     <use xlink:href="#DejaVuSans-73" x="6876.220703"/>
     <use xlink:href="#DejaVuSans-20" x="6928.320312"/>
     <use xlink:href="#DejaVuSans-62" x="6960.107422"/>
     <use xlink:href="#DejaVuSans-65" x="7023.583984"/>
     <use xlink:href="#DejaVuSans-74" x="7085.107422"/>
     <use xlink:href="#DejaVuSans-74" x="7124.316406"/>
     <use xlink:href="#DejaVuSans-65" x="7163.525391"/>
     <use xlink:href="#DejaVuSans-72" x="7225.048828"/>
     <use xlink:href="#DejaVuSans-29" x="7266.162109"/>
    </g>
    <!-- Data has been extracted directly from the 3.19.1 game files via "scdatatools" (https://gitlab.com/scmodding/frameworks/scdatatools). -->
    <g transform="translate(408.25875 75.602625) scale(0.12 -0.12)">
     <defs>
      <path id="DejaVuSans-44" d="M 1259 4147 
L 1259 519 
L 2022 519 
Q 2988 519 3436 956 
Q 3884 1394 3884 2338 
Q 3884 3275 3436 3711 
Q 2988 4147 2022 4147 
L 1259 4147 
z
M 628 4666 
L 1925 4666 
Q 3281 4666 3915 4102 
Q 4550 3538 4550 2338 
Q 4550 1131 3912 565 
Q 3275 0 1925 0 
L 628 0 
L 628 4666 
z
" transform="scale(0.015625)"/>
      <path id="DejaVuSans-78" d="M 3513 3500 
L 2247 1797 
L 3578 0 
L 2900 0 
L 1881 1375 
L 863 0 
L 184 0 
L 1544 1831 
L 300 3500 
L 978 3500 
L 1906 2253 
L 2834 3500 
L 3513 3500 
z
" transform="scale(0.015625)"/>
      <path id="DejaVuSans-2e" d="M 684 794 
L 1344 794 
L 1344 0 
L 684 0 
L 684 794 
z
" transform="scale(0.015625)"/>
      <path id="DejaVuSans-22" d="M 1147 4666 
L 1147 2931 
L 616 2931 
L 616 4666 
L 1147 4666 
z
M 2328 4666 
L 2328 2931 
L 1797 2931 
L 1797 4666 
L 2328 4666 
z
" transform="scale(0.015625)"/>
      <path id="DejaVuSans-70" d="M 1159 525 
L 1159 -1331 
L 581 -1331 
L 581 3500 
L 1159 3500 
L 1159 2969 
Q 1341 3281 1617 3432 
Q 1894 3584 2278 3584 
Q 2916 3584 3314 3078 
Q 3713 2572 3713 1747 
Q 3713 922 3314 415 
Q 2916 -91 2278 -91 
Q 1894 -91 1617 61 
Q 1341 213 1159 525 
z
M 3116 1747 
Q 3116 2381 2855 2742 
Q 2594 3103 2138 3103 
Q 1681 3103 1420 2742 
Q 1159 2381 1159 1747 
Q 1159 1113 1420 752 
Q 1681 391 2138 391 
Q 2594 391 2855 752 
Q 3116 1113 3116 1747 
z
" transform="scale(0.015625)"/>
      <path id="DejaVuSans-2f" d="M 1625 4666 
L 2156 4666 
L 531 -594 
L 0 -594 
L 1625 4666 
z
" transform="scale(0.015625)"/>
      <path id="DejaVuSans-6b" d="M 581 4863 
L 1159 4863 
L 1159 1991 
L 2875 3500 
L 3609 3500 
L 1753 1863 
L 3688 0 
L 2938 0 
L 1159 1709 
L 1159 0 
L 581 0 
L 581 4863 
z
" transform="scale(0.015625)"/>
     </defs>
     <use xlink:href="#DejaVuSans-44"/>
     <use xlink:href="#DejaVuSans-61" x="77.001953"/>
     <use xlink:href="#DejaVuSans-74" x="138.28125"/>
     <use xlink:href="#DejaVuSans-61" x="177.490234"/>
     <use xlink:href="#DejaVuSans-20" x="238.769531"/>
     <use xlink:href="#DejaVuSans-68" x="270.556641"/>
     <use xlink:href="#DejaVuSans-61" x="333.935547"/>
     <use xlink:href="#DejaVuSans-73" x="395.214844"/>
     <use xlink:href="#DejaVuSans-20" x="447.314453"/>
     <use xlink:href="#DejaVuSans-62" x="479.101562"/>
     <use xlink:href="#DejaVuSans-65" x="542.578125"/>
     <use xlink:href="#DejaVuSans-65" x="604.101562"/>
     <use xlink:href="#DejaVuSans-6e" x="665.625"/>
     <use xlink:href="#DejaVuSans-20" x="729.003906"/>
     <use xlink:href="#DejaVuSans-65" x="760.791016"/>
     <use xlink:href="#DejaVuSans-78" x="820.564453"/>
     <use xlink:href="#DejaVuSans-74" x="879.744141"/>
     <use xlink:href="#DejaVuSans-72" x="918.953125"/>
     <use xlink:href="#DejaVuSans-61" x="960.066406"/>
     <use xlink:href="#DejaVuSans-63" x="1021.345703"/>
     <use xlink:href="#DejaVuSans-74" x="1076.326172"/>
     <use xlink:href="#DejaVuSans-65" x="1115.535156"/>
     <use xlink:href="#DejaVuSans-64" x="1177.058594"/>
     <use xlink:href="#DejaVuSans-20" x="1240.535156"/>
     <use xlink:href="#DejaVuSans-64" x="1272.322266"/>
     <use xlink:href="#DejaVuSans-69" x="1335.798828"/>
     <use xlink:href="#DejaVuSans-72" x="1363.582031"/>
     <use xlink:href="#DejaVuSans-65" x="1402.445312"/>
     <use xlink:href="#DejaVuSans-63" x="1463.96875"/>
     <use xlink:href="#DejaVuSans-74" x="1518.949219"/>
     <use xlink:href="#DejaVuSans-6c" x="1558.158203"/>
     <use xlink:href="#DejaVuSans-79" x="1585.941406"/>
     <use xlink:href="#DejaVuSans-20" x="1645.121094"/>
     <use xlink:href="#DejaVuSans-66" x="1676.908203"/>
     <use xlink:href="#DejaVuSans-72" x="1712.113281"/>
     <use xlink:href="#DejaVuSans-6f" x="1750.976562"/>
     <use xlink:href="#DejaVuSans-6d" x="1812.158203"/>
     <use xlink:href="#DejaVuSans-20" x="1909.570312"/>
     <use xlink:href="#DejaVuSans-74" x="1941.357422"/>
     <use xlink:href="#DejaVuSans-68" x="1980.566406"/>
     <use xlink:href="#DejaVuSans-65" x="2043.945312"/>
     <use xlink:href="#DejaVuSans-20" x="2105.46875"/>
     <use xlink:href="#DejaVuSans-33" x="2137.255859"/>
     <use xlink:href="#DejaVuSans-2e" x="2200.878906"/>
     <use xlink:href="#DejaVuSans-31" x="2232.666016"/>
     <use xlink:href="#DejaVuSans-39" x="2296.289062"/>
     <use xlink:href="#DejaVuSans-2e" x="2359.912109"/>
     <use xlink:href="#DejaVuSans-31" x="2391.699219"/>
     <use xlink:href="#DejaVuSans-20" x="2455.322266"/>
     <use xlink:href="#DejaVuSans-67" x="2487.109375"/>
     <use xlink:href="#DejaVuSans-61" x="2550.585938"/>
     <use xlink:href="#DejaVuSans-6d" x="2611.865234"/>
     <use xlink:href="#DejaVuSans-65" x="2709.277344"/>
     <use xlink:href="#DejaVuSans-20" x="2770.800781"/>
     <use xlink:href="#DejaVuSans-66" x="2802.587891"/>
     <use xlink:href="#DejaVuSans-69" x="2837.792969"/>
     <use xlink:href="#DejaVuSans-6c" x="2865.576172"/>
     <use xlink:href="#DejaVuSans-65" x="2893.359375"/>
     <use xlink:href="#DejaVuSans-73" x="2954.882812"/>
     <use xlink:href="#DejaVuSans-20" x="3006.982422"/>
     <use xlink:href="#DejaVuSans-76" x="3038.769531"/>
     <use xlink:href="#DejaVuSans-69" x="3097.949219"/>
     <use xlink:href="#DejaVuSans-61" x="3125.732422"/>
     <use xlink:href="#DejaVuSans-20" x="3187.011719"/>
     <use xlink:href="#DejaVuSans-22" x="3218.798828"/>
     <use xlink:href="#DejaVuSans-73" x="3264.794922"/>
     <use xlink:href="#DejaVuSans-63" x="3316.894531"/>
     <use xlink:href="#DejaVuSans-64" x="3371.875"/>
     <use xlink:href="#DejaVuSans-61" x="3435.351562"/>
     <use xlink:href="#DejaVuSans-74" x="3496.630859"/>
     <use xlink:href="#DejaVuSans-61" x="3535.839844"/>
     <use xlink:href="#DejaVuSans-74" x="3597.119141"/>
     <use xlink:href="#DejaVuSans-6f" x="3636.328125"/>
     <use xlink:href="#DejaVuSans-6f" x="3697.509766"/>
     <use xlink:href="#DejaVuSans-6c" x="3758.691406"/>
     <use xlink:href="#DejaVuSans-73" x="3786.474609"/>
     <use xlink:href="#DejaVuSans-22" x="3838.574219"/>
     <use xlink:href="#DejaVuSans-20" x="3884.570312"/>
     <use xlink:href="#DejaVuSans-28" x="3916.357422"/>
     <use xlink:href="#DejaVuSans-68" x="3955.371094"/>
     <use xlink:href="#DejaVuSans-74" x="4018.75"/>
     <use xlink:href="#DejaVuSans-74" x="4057.958984"/>
     <use xlink:href="#DejaVuSans-70" x="4097.167969"/>
     <use xlink:href="#DejaVuSans-73" x="4160.644531"/>
     <use xlink:href="#DejaVuSans-3a" x="4212.744141"/>
     <use xlink:href="#DejaVuSans-2f" x="4246.435547"/>
     <use xlink:href="#DejaVuSans-2f" x="4280.126953"/>
     <use xlink:href="#DejaVuSans-67" x="4313.818359"/>
     <use xlink:href="#DejaVuSans-69" x="4377.294922"/>
     <use xlink:href="#DejaVuSans-74" x="4405.078125"/>
     <use xlink:href="#DejaVuSans-6c" x="4444.287109"/>
     <use xlink:href="#DejaVuSans-61" x="4472.070312"/>
     <use xlink:href="#DejaVuSans-62" x="4533.349609"/>
     <use xlink:href="#DejaVuSans-2e" x="4596.826172"/>
     <use xlink:href="#DejaVuSans-63" x="4628.613281"/>
     <use xlink:href="#DejaVuSans-6f" x="4683.59375"/>
     <use xlink:href="#DejaVuSans-6d" x="4744.775391"/>
     <use xlink:href="#DejaVuSans-2f" x="4842.1875"/>
     <use xlink:href="#DejaVuSans-73" x="4875.878906"/>
     <use xlink:href="#DejaVuSans-63" x="4927.978516"/>
     <use xlink:href="#DejaVuSans-6d" x="4982.958984"/>
     <use xlink:href="#DejaVuSans-6f" x="5080.371094"/>
     <use xlink:href="#DejaVuSans-64" x="5141.552734"/>
     <use xlink:href="#DejaVuSans-64" x="5205.029297"/>
     <use xlink:href="#DejaVuSans-69" x="5268.505859"/>
     <use xlink:href="#DejaVuSans-6e" x="5296.289062"/>
     <use xlink:href="#DejaVuSans-67" x="5359.667969"/>
     <use xlink:href="#DejaVuSans-2f" x="5423.144531"/>
     <use xlink:href="#DejaVuSans-66" x="5456.835938"/>
     <use xlink:href="#DejaVuSans-72" x="5492.041016"/>
     <use xlink:href="#DejaVuSans-61" x="5533.154297"/>
     <use xlink:href="#DejaVuSans-6d" x="5594.433594"/>
     <use xlink:href="#DejaVuSans-65" x="5691.845703"/>
     <use xlink:href="#DejaVuSans-77" x="5753.369141"/>
     <use xlink:href="#DejaVuSans-6f" x="5835.15625"/>
     <use xlink:href="#DejaVuSans-72" x="5896.337891"/>
     <use xlink:href="#DejaVuSans-6b" x="5937.451172"/>
     <use xlink:href="#DejaVuSans-73" x="5995.361328"/>
     <use xlink:href="#DejaVuSans-2f" x="6047.460938"/>
     <use xlink:href="#DejaVuSans-73" x="6081.152344"/>
     <use xlink:href="#DejaVuSans-63" x="6133.251953"/>
     <use xlink:href="#DejaVuSans-64" x="6188.232422"/>
     <use xlink:href="#DejaVuSans-61" x="6251.708984"/>
     <use xlink:href="#DejaVuSans-74" x="6312.988281"/>
     <use xlink:href="#DejaVuSans-61" x="6352.197266"/>
     <use xlink:href="#DejaVuSans-74" x="6413.476562"/>
     <use xlink:href="#DejaVuSans-6f" x="6452.685547"/>
     <use xlink:href="#DejaVuSans-6f" x="6513.867188"/>
     <use xlink:href="#DejaVuSans-6c" x="6575.048828"/>
     <use xlink:href="#DejaVuSans-73" x="6602.832031"/>
     <use xlink:href="#DejaVuSans-29" x="6654.931641"/>
     <use xlink:href="#DejaVuSans-2e" x="6693.945312"/>
    </g>
    <!-- Calculations are based on the paper "A study on travel time and the underlying physical model of Quantum Drives in Star Citizen" by @Erec (https://gitlab.com/Erecco/a-study-on-quantum-travel-time). -->
    <g transform="translate(207.392813 89.04) scale(0.12 -0.12)">
     <defs>
      <path id="DejaVuSans-51" d="M 2522 4238 
Q 1834 4238 1429 3725 
Q 1025 3213 1025 2328 
Q 1025 1447 1429 934 
Q 1834 422 2522 422 
Q 3209 422 3611 934 
Q 4013 1447 4013 2328 
Q 4013 3213 3611 3725 
Q 3209 4238 2522 4238 
z
M 3406 84 
L 4238 -825 
L 3475 -825 
L 2784 -78 
Q 2681 -84 2626 -87 
Q 2572 -91 2522 -91 
Q 1538 -91 948 567 
Q 359 1225 359 2328 
Q 359 3434 948 4092 
Q 1538 4750 2522 4750 
Q 3503 4750 4090 4092 
Q 4678 3434 4678 2328 
Q 4678 1516 4351 937 
Q 4025 359 3406 84 
z
" transform="scale(0.015625)"/>
      <path id="DejaVuSans-40" d="M 2381 1678 
Q 2381 1231 2603 976 
Q 2825 722 3213 722 
Q 3597 722 3817 978 
Q 4038 1234 4038 1678 
Q 4038 2116 3813 2373 
Q 3588 2631 3206 2631 
Q 2828 2631 2604 2375 
Q 2381 2119 2381 1678 
z
M 4084 744 
Q 3897 503 3655 389 
Q 3413 275 3091 275 
Q 2553 275 2217 664 
Q 1881 1053 1881 1678 
Q 1881 2303 2218 2693 
Q 2556 3084 3091 3084 
Q 3413 3084 3656 2967 
Q 3900 2850 4084 2613 
L 4084 3022 
L 4531 3022 
L 4531 722 
Q 4988 791 5245 1139 
Q 5503 1488 5503 2041 
Q 5503 2375 5404 2669 
Q 5306 2963 5106 3213 
Q 4781 3622 4314 3839 
Q 3847 4056 3297 4056 
Q 2913 4056 2559 3954 
Q 2206 3853 1906 3653 
Q 1416 3334 1139 2817 
Q 863 2300 863 1697 
Q 863 1200 1042 765 
Q 1222 331 1563 0 
Q 1891 -325 2322 -495 
Q 2753 -666 3244 -666 
Q 3647 -666 4036 -530 
Q 4425 -394 4750 -141 
L 5031 -488 
Q 4641 -791 4180 -952 
Q 3719 -1113 3244 -1113 
Q 2666 -1113 2153 -908 
Q 1641 -703 1241 -313 
Q 841 78 631 592 
Q 422 1106 422 1697 
Q 422 2266 634 2781 
Q 847 3297 1241 3688 
Q 1644 4084 2172 4295 
Q 2700 4506 3291 4506 
Q 3953 4506 4520 4234 
Q 5088 3963 5472 3463 
Q 5706 3156 5829 2797 
Q 5953 2438 5953 2053 
Q 5953 1231 5456 756 
Q 4959 281 4084 263 
L 4084 744 
z
" transform="scale(0.015625)"/>
     </defs>
     <use xlink:href="#DejaVuSans-43"/>
     <use xlink:href="#DejaVuSans-61" x="69.824219"/>
     <use xlink:href="#DejaVuSans-6c" x="131.103516"/>
     <use xlink:href="#DejaVuSans-63" x="158.886719"/>
     <use xlink:href="#DejaVuSans-75" x="213.867188"/>
     <use xlink:href="#DejaVuSans-6c" x="277.246094"/>
     <use xlink:href="#DejaVuSans-61" x="305.029297"/>
     <use xlink:href="#DejaVuSans-74" x="366.308594"/>
     <use xlink:href="#DejaVuSans-69" x="405.517578"/>
     <use xlink:href="#DejaVuSans-6f" x="433.300781"/>
     <use xlink:href="#DejaVuSans-6e" x="494.482422"/>
     <use xlink:href="#DejaVuSans-73" x="557.861328"/>
     <use xlink:href="#DejaVuSans-20" x="609.960938"/>
     <use xlink:href="#DejaVuSans-61" x="641.748047"/>
     <use xlink:href="#DejaVuSans-72" x="703.027344"/>
     <use xlink:href="#DejaVuSans-65" x="741.890625"/>
     <use xlink:href="#DejaVuSans-20" x="803.414062"/>
     <use xlink:href="#DejaVuSans-62" x="835.201172"/>
     <use xlink:href="#DejaVuSans-61" x="898.677734"/>
     <use xlink:href="#DejaVuSans-73" x="959.957031"/>
     <use xlink:href="#DejaVuSans-65" x="1012.056641"/>
     <use xlink:href="#DejaVuSans-64" x="1073.580078"/>
     <use xlink:href="#DejaVuSans-20" x="1137.056641"/>
     <use xlink:href="#DejaVuSans-6f" x="1168.84375"/>
     <use xlink:href="#DejaVuSans-6e" x="1230.025391"/>
     <use xlink:href="#DejaVuSans-20" x="1293.404297"/>
     <use xlink:href="#DejaVuSans-74" x="1325.191406"/>
     <use xlink:href="#DejaVuSans-68" x="1364.400391"/>
     <use xlink:href="#DejaVuSans-65" x="1427.779297"/>
     <use xlink:href="#DejaVuSans-20" x="1489.302734"/>
     <use xlink:href="#DejaVuSans-70" x="1521.089844"/>
     <use xlink:href="#DejaVuSans-61" x="1584.566406"/>
     <use xlink:href="#DejaVuSans-70" x="1645.845703"/>
     <use xlink:href="#DejaVuSans-65" x="1709.322266"/>
     <use xlink:href="#DejaVuSans-72" x="1770.845703"/>
     <use xlink:href="#DejaVuSans-20" x="1811.958984"/>
     <use xlink:href="#DejaVuSans-22" x="1843.746094"/>
     <use xlink:href="#DejaVuSans-41" x="1889.742188"/>
     <use xlink:href="#DejaVuSans-20" x="1958.150391"/>
     <use xlink:href="#DejaVuSans-73" x="1989.9375"/>
     <use xlink:href="#DejaVuSans-74" x="2042.037109"/>
     <use xlink:href="#DejaVuSans-75" x="2081.246094"/>
     <use xlink:href="#DejaVuSans-64" x="2144.625"/>
     <use xlink:href="#DejaVuSans-79" x="2208.101562"/>
     <use xlink:href="#DejaVuSans-20" x="2267.28125"/>
     <use xlink:href="#DejaVuSans-6f" x="2299.068359"/>
     <use xlink:href="#DejaVuSans-6e" x="2360.25"/>
     <use xlink:href="#DejaVuSans-20" x="2423.628906"/>
     <use xlink:href="#DejaVuSans-74" x="2455.416016"/>
     <use xlink:href="#DejaVuSans-72" x="2494.625"/>
     <use xlink:href="#DejaVuSans-61" x="2535.738281"/>
     <use xlink:href="#DejaVuSans-76" x="2597.017578"/>
     <use xlink:href="#DejaVuSans-65" x="2656.197266"/>
     <use xlink:href="#DejaVuSans-6c" x="2717.720703"/>
     <use xlink:href="#DejaVuSans-20" x="2745.503906"/>
     <use xlink:href="#DejaVuSans-74" x="2777.291016"/>
     <use xlink:href="#DejaVuSans-69" x="2816.5"/>
     <use xlink:href="#DejaVuSans-6d" x="2844.283203"/>
     <use xlink:href="#DejaVuSans-65" x="2941.695312"/>
     <use xlink:href="#DejaVuSans-20" x="3003.21875"/>
     <use xlink:href="#DejaVuSans-61" x="3035.005859"/>
     <use xlink:href="#DejaVuSans-6e" x="3096.285156"/>
     <use xlink:href="#DejaVuSans-64" x="3159.664062"/>
     <use xlink:href="#DejaVuSans-20" x="3223.140625"/>
     <use xlink:href="#DejaVuSans-74" x="3254.927734"/>
     <use xlink:href="#DejaVuSans-68" x="3294.136719"/>
     <use xlink:href="#DejaVuSans-65" x="3357.515625"/>
     <use xlink:href="#DejaVuSans-20" x="3419.039062"/>
     <use xlink:href="#DejaVuSans-75" x="3450.826172"/>
     <use xlink:href="#DejaVuSans-6e" x="3514.205078"/>
     <use xlink:href="#DejaVuSans-64" x="3577.583984"/>
     <use xlink:href="#DejaVuSans-65" x="3641.060547"/>
     <use xlink:href="#DejaVuSans-72" x="3702.583984"/>
     <use xlink:href="#DejaVuSans-6c" x="3743.697266"/>
     <use xlink:href="#DejaVuSans-79" x="3771.480469"/>
     <use xlink:href="#DejaVuSans-69" x="3830.660156"/>
     <use xlink:href="#DejaVuSans-6e" x="3858.443359"/>
     <use xlink:href="#DejaVuSans-67" x="3921.822266"/>
     <use xlink:href="#DejaVuSans-20" x="3985.298828"/>
     <use xlink:href="#DejaVuSans-70" x="4017.085938"/>
     <use xlink:href="#DejaVuSans-68" x="4080.5625"/>
     <use xlink:href="#DejaVuSans-79" x="4143.941406"/>
     <use xlink:href="#DejaVuSans-73" x="4203.121094"/>
     <use xlink:href="#DejaVuSans-69" x="4255.220703"/>
     <use xlink:href="#DejaVuSans-63" x="4283.003906"/>
     <use xlink:href="#DejaVuSans-61" x="4337.984375"/>
     <use xlink:href="#DejaVuSans-6c" x="4399.263672"/>
     <use xlink:href="#DejaVuSans-20" x="4427.046875"/>
     <use xlink:href="#DejaVuSans-6d" x="4458.833984"/>
     <use xlink:href="#DejaVuSans-6f" x="4556.246094"/>
     <use xlink:href="#DejaVuSans-64" x="4617.427734"/>
     <use xlink:href="#DejaVuSans-65" x="4680.904297"/>
     <use xlink:href="#DejaVuSans-6c" x="4742.427734"/>
     <use xlink:href="#DejaVuSans-20" x="4770.210938"/>
     <use xlink:href="#DejaVuSans-6f" x="4801.998047"/>
     <use xlink:href="#DejaVuSans-66" x="4863.179688"/>
     <use xlink:href="#DejaVuSans-20" x="4898.384766"/>
     <use xlink:href="#DejaVuSans-51" x="4930.171875"/>
     <use xlink:href="#DejaVuSans-75" x="5008.882812"/>
     <use xlink:href="#DejaVuSans-61" x="5072.261719"/>
     <use xlink:href="#DejaVuSans-6e" x="5133.541016"/>
     <use xlink:href="#DejaVuSans-74" x="5196.919922"/>
     <use xlink:href="#DejaVuSans-75" x="5236.128906"/>
     <use xlink:href="#DejaVuSans-6d" x="5299.507812"/>
     <use xlink:href="#DejaVuSans-20" x="5396.919922"/>
     <use xlink:href="#DejaVuSans-44" x="5428.707031"/>
     <use xlink:href="#DejaVuSans-72" x="5505.708984"/>
     <use xlink:href="#DejaVuSans-69" x="5546.822266"/>
     <use xlink:href="#DejaVuSans-76" x="5574.605469"/>
     <use xlink:href="#DejaVuSans-65" x="5633.785156"/>
     <use xlink:href="#DejaVuSans-73" x="5695.308594"/>
     <use xlink:href="#DejaVuSans-20" x="5747.408203"/>
     <use xlink:href="#DejaVuSans-69" x="5779.195312"/>
     <use xlink:href="#DejaVuSans-6e" x="5806.978516"/>
     <use xlink:href="#DejaVuSans-20" x="5870.357422"/>
     <use xlink:href="#DejaVuSans-53" x="5902.144531"/>
     <use xlink:href="#DejaVuSans-74" x="5965.621094"/>
     <use xlink:href="#DejaVuSans-61" x="6004.830078"/>
     <use xlink:href="#DejaVuSans-72" x="6066.109375"/>
     <use xlink:href="#DejaVuSans-20" x="6107.222656"/>
     <use xlink:href="#DejaVuSans-43" x="6139.009766"/>
     <use xlink:href="#DejaVuSans-69" x="6208.833984"/>
     <use xlink:href="#DejaVuSans-74" x="6236.617188"/>
     <use xlink:href="#DejaVuSans-69" x="6275.826172"/>
     <use xlink:href="#DejaVuSans-7a" x="6303.609375"/>
     <use xlink:href="#DejaVuSans-65" x="6356.099609"/>
     <use xlink:href="#DejaVuSans-6e" x="6417.623047"/>
     <use xlink:href="#DejaVuSans-22" x="6481.001953"/>
     <use xlink:href="#DejaVuSans-20" x="6526.998047"/>
     <use xlink:href="#DejaVuSans-62" x="6558.785156"/>
     <use xlink:href="#DejaVuSans-79" x="6622.261719"/>
     <use xlink:href="#DejaVuSans-20" x="6681.441406"/>
     <use xlink:href="#DejaVuSans-40" x="6713.228516"/>
     <use xlink:href="#DejaVuSans-45" x="6813.228516"/>
     <use xlink:href="#DejaVuSans-72" x="6876.412109"/>
     <use xlink:href="#DejaVuSans-65" x="6915.275391"/>
     <use xlink:href="#DejaVuSans-63" x="6976.798828"/>
     <use xlink:href="#DejaVuSans-20" x="7031.779297"/>
     <use xlink:href="#DejaVuSans-28" x="7063.566406"/>
     <use xlink:href="#DejaVuSans-68" x="7102.580078"/>
     <use xlink:href="#DejaVuSans-74" x="7165.958984"/>
     <use xlink:href="#DejaVuSans-74" x="7205.167969"/>
     <use xlink:href="#DejaVuSans-70" x="7244.376953"/>
     <use xlink:href="#DejaVuSans-73" x="7307.853516"/>
     <use xlink:href="#DejaVuSans-3a" x="7359.953125"/>
     <use xlink:href="#DejaVuSans-2f" x="7393.644531"/>
     <use xlink:href="#DejaVuSans-2f" x="7427.335938"/>
     <use xlink:href="#DejaVuSans-67" x="7461.027344"/>
     <use xlink:href="#DejaVuSans-69" x="7524.503906"/>
     <use xlink:href="#DejaVuSans-74" x="7552.287109"/>
     <use xlink:href="#DejaVuSans-6c" x="7591.496094"/>
     <use xlink:href="#DejaVuSans-61" x="7619.279297"/>
     <use xlink:href="#DejaVuSans-62" x="7680.558594"/>
     <use xlink:href="#DejaVuSans-2e" x="7744.035156"/>
     <use xlink:href="#DejaVuSans-63" x="7775.822266"/>
     <use xlink:href="#DejaVuSans-6f" x="7830.802734"/>
     <use xlink:href="#DejaVuSans-6d" x="7891.984375"/>
     <use xlink:href="#DejaVuSans-2f" x="7989.396484"/>
     <use xlink:href="#DejaVuSans-45" x="8023.087891"/>
     <use xlink:href="#DejaVuSans-72" x="8086.271484"/>
     <use xlink:href="#DejaVuSans-65" x="8125.134766"/>
     <use xlink:href="#DejaVuSans-63" x="8186.658203"/>
     <use xlink:href="#DejaVuSans-63" x="8241.638672"/>
     <use xlink:href="#DejaVuSans-6f" x="8296.619141"/>
     <use xlink:href="#DejaVuSans-2f" x="8357.800781"/>
     <use xlink:href="#DejaVuSans-61" x="8391.492188"/>
     <use xlink:href="#DejaVuSans-2d" x="8452.771484"/>
     <use xlink:href="#DejaVuSans-73" x="8488.855469"/>
     <use xlink:href="#DejaVuSans-74" x="8540.955078"/>
     <use xlink:href="#DejaVuSans-75" x="8580.164062"/>
     <use xlink:href="#DejaVuSans-64" x="8643.542969"/>
     <use xlink:href="#DejaVuSans-79" x="8707.019531"/>
     <use xlink:href="#DejaVuSans-2d" x="8764.449219"/>
     <use xlink:href="#DejaVuSans-6f" x="8802.408203"/>
     <use xlink:href="#DejaVuSans-6e" x="8863.589844"/>
     <use xlink:href="#DejaVuSans-2d" x="8926.96875"/>
     <use xlink:href="#DejaVuSans-71" x="8963.052734"/>
     <use xlink:href="#DejaVuSans-75" x="9026.529297"/>
     <use xlink:href="#DejaVuSans-61" x="9089.908203"/>
     <use xlink:href="#DejaVuSans-6e" x="9151.1875"/>
     <use xlink:href="#DejaVuSans-74" x="9214.566406"/>
     <use xlink:href="#DejaVuSans-75" x="9253.775391"/>
     <use xlink:href="#DejaVuSans-6d" x="9317.154297"/>
     <use xlink:href="#DejaVuSans-2d" x="9414.566406"/>
     <use xlink:href="#DejaVuSans-74" x="9450.650391"/>
     <use xlink:href="#DejaVuSans-72" x="9489.859375"/>
     <use xlink:href="#DejaVuSans-61" x="9530.972656"/>
     <use xlink:href="#DejaVuSans-76" x="9592.251953"/>
     <use xlink:href="#DejaVuSans-65" x="9651.431641"/>
     <use xlink:href="#DejaVuSans-6c" x="9712.955078"/>
     <use xlink:href="#DejaVuSans-2d" x="9740.738281"/>
     <use xlink:href="#DejaVuSans-74" x="9776.822266"/>
     <use xlink:href="#DejaVuSans-69" x="9816.03125"/>
     <use xlink:href="#DejaVuSans-6d" x="9843.814453"/>
     <use xlink:href="#DejaVuSans-65" x="9941.226562"/>
     <use xlink:href="#DejaVuSans-29" x="10002.75"/>
     <use xlink:href="#DejaVuSans-2e" x="10041.763672"/>
    </g>
   </g>
  </g>
  <g id="text_33">
   <!-- Common quantum drives -->
   <g transform="translate(639.523125 34.07625) scale(0.24 -0.24)">
    <use xlink:href="#DejaVuSans-43"/>
    <use xlink:href="#DejaVuSans-6f" x="69.824219"/>
    <use xlink:href="#DejaVuSans-6d" x="131.005859"/>
    <use xlink:href="#DejaVuSans-6d" x="228.417969"/>
    <use xlink:href="#DejaVuSans-6f" x="325.830078"/>
    <use xlink:href="#DejaVuSans-6e" x="387.011719"/>
    <use xlink:href="#DejaVuSans-20" x="450.390625"/>
    <use xlink:href="#DejaVuSans-71" x="482.177734"/>
    <use xlink:href="#DejaVuSans-75" x="545.654297"/>
    <use xlink:href="#DejaVuSans-61" x="609.033203"/>
    <use xlink:href="#DejaVuSans-6e" x="670.3125"/>
    <use xlink:href="#DejaVuSans-74" x="733.691406"/>
    <use xlink:href="#DejaVuSans-75" x="772.900391"/>
    <use xlink:href="#DejaVuSans-6d" x="836.279297"/>
    <use xlink:href="#DejaVuSans-20" x="933.691406"/>
    <use xlink:href="#DejaVuSans-64" x="965.478516"/>
    <use xlink:href="#DejaVuSans-72" x="1028.955078"/>
    <use xlink:href="#DejaVuSans-69" x="1070.068359"/>
    <use xlink:href="#DejaVuSans-76" x="1097.851562"/>
    <use xlink:href="#DejaVuSans-65" x="1157.03125"/>
    <use xlink:href="#DejaVuSans-73" x="1218.554688"/>
   </g>
  </g>
 </g>
 <defs>
  <clipPath id="p84fadc1a59">
   <rect x="198" y="95.04" width="1227.6" height="609.84"/>
  </clipPath>
 </defs>
</svg>
